<?xml version="1.0" encoding="utf-8"?>

<!-- Uploaded to: SVG Repo, www.svgrepo.com, Generator: SVG Repo Mixer Tools -->
<svg width="800px" height="800px" viewBox="0 0 24 24" xmlns="http://www.w3.org/2000/svg">
    <g>
        <!-- Zewnętrzna część pozostaje bez wypełnienia -->
        <path fill="none" d="M0 0h24v24H0z"/>

        <!-- Wypełnienie białym kolorem wewnątrz okręgu -->
        <path fill="white" d="M12 20C7.582 20 4 16.418 4 12S7.582 4 12 4s8 3.582 8 8-3.582 8-8 8z"/>
        
        <!-- Pastelowo zielony obrys i znacznik -->
        <path fill="#23a719" d="M12 22C6.477 22 2 17.523 2 12S6.477 2 12 2s10 4.477 10 10-4.477 10-10 10zm-.997-6l7.07-7.071-1.414-1.414-5.656 5.657-2.829-2.829-1.414 1.414L11.003 16z"/>
    </g>
</svg>