<?xml version='1.0' encoding='utf-8'?>
<svg xmlns="http://www.w3.org/2000/svg" version="1.1" viewBox="0 0 1024 1024"> <g fill="none" stroke-width="2"> <path d="m359.43 536.52c8.9-3.13 17.3-2.44 24.89 3.1q0.41 0.3 0.31-0.2c-2.23-10.83-2.11-20.67-3.26-31.25" stroke="#fcc786" vector-effect="non-scaling-stroke"/> <path d="m381.37 508.17q14.56 39.67 28.63 79.41c3.88 10.96 5.89 23.25 18.05 27.7q0.55 0.2 0.54 0.79l-0.47 21.31q-0.02 0.57-0.59 0.54-0.88-0.05-1.03-0.99-0.41-2.42-1.18-4.03-0.29-0.6-0.95-0.6l-19.71 0.08a0.41 0.41 0 0 1-0.41-0.41l-0.07-16.45q0-0.64-0.65-0.64l-20.31-0.01q-0.9 0-0.92-0.9l-0.18-12.72q-0.01-0.6-0.61-0.62l-5.79-0.19a0.48 0.48 0 0 1-0.47-0.48v-10.54q0-0.59-0.58-0.59l-10.55 0.02q-0.61 0-0.61 0.62-0.03 14.39-0.01 28.78 0 2.27 0.35 4.59 0.08 0.57-0.47 0.4c-1.11-0.35-1.92-0.77-3.06-0.75q-10.23 0.15-20.51-0.4a0.53 0.53 0 0 1-0.5-0.51l-0.21-4.79q-0.02-0.54-0.55-0.57l-6.16-0.39q-0.64-0.04-0.64-0.68v-13.15q0-0.75-0.75-0.75h-7.52q-0.53 0-0.45-0.52l0.49-3.04a0.6 0.6 0 0 0-0.59-0.69h-2.64q-0.71 0-0.71-0.71l-0.12-18.19q0-1.1-1.11-1.1h-5.85q-0.75 0-0.76-0.75l-0.32-13.19q-0.02-0.59-0.61-0.6l-17.24-0.1q-0.57-0.01-0.57 0.57v22.15a0.59 0.58-90 0 1-0.58 0.59l-35.1 0.28q-0.48 0-0.49 0.48l-0.3 9.78q-0.01 0.47-0.49 0.47l-20.48 0.23q-0.52 0-0.54 0.53l-0.35 8.56q-0.01 0.37-0.39 0.39-20.31 0.76-40.56 2.46c-1.08 0.09-3.5 0.02-4.65 0.67a0.91 0.91 0 0 0 0.39 1.7q13.39 0.78 25.72 1.76 3.77 0.31 5.23 3.54a1.32 1.31-46.2 0 1 0.02 1.01q-1.53 3.82-5.89 4.26c-18.8 1.89-37.97 1.98-56.85 3.07q-0.85 0.05-1.25 0.44-0.65 0.63-0.28 1.54a1.39 1.36-8 0 0 1.15 0.85c62.01 5.42 122.87 3.85 196.07 5.84q0.06 0.01 0.06 0.05 0 0.03 0 0.07 0.01 0.11-0.1 0.12-2.29 0.25-4.59 0.29-59.35 0.86-118.7 1.65-11.76 0.16-19.98 0.51c-15.37 0.65-31.1 1.08-46.35 3.22a0.85 0.85 0 0 0-0.52 1.4q0.48 0.56 1.57 0.66c26.55 2.54 53.94 3.09 80.16 3.33q0.41 0.01 0.61 0.27 0.34 0.45-0.22 0.5-25.92 2.45-51.81 5.21-1 0.1-1.1 0.25a1.45 1.45 0 0 0 1.11 2.21q5.35 0.42 10.23 0.43 28.84 0.02 57.68 0.3c2.82 0.03 10.08-0.34 10.25 4.27 0.1 2.56-2.46 3.25-4.71 3.41q-25.36 1.79-50.32 5.65a1.59 1.59 0 0 0-1.27 2.05q0.1 0.34 1.14 0.53 4.21 0.79 8.47 0.94c18.36 0.65 36.13-0.2 54.75-2.48q73.31-8.94 146.84-15.96 0.42-0.04 0.42 0.39v2.76q0 0.69-0.69 0.73-11.05 0.69-19.25 7.68" stroke="#90857a" vector-effect="non-scaling-stroke"/> <path d="m407.06 663.97-99.93 10.15" stroke="#f3a981" vector-effect="non-scaling-stroke"/> <path d="m307.13 674.12-23.05 2.28q-0.66 0.06-0.31 0.62 0.8 1.26 2.16 3.04c48.68 63.72 121.45 106.77 202.02 112.86 98.33 7.42 190.34-37.13 248.62-116.15" stroke="#90857a" vector-effect="non-scaling-stroke"/> <path d="m736.57 676.77q36.42 3.54 73.6 6.99c14.91 1.38 29.08-5.82 29.56-22.39a0.64 0.63 0.5 0 1 0.64-0.62c6.87-0.01 12.66 0.89 20.6-0.81 13.65-2.94 24.78-12.64 27.04-26.53 2.92-17.95-11.12-32.68-28.27-34.61q-10.46-1.18-21.49 1.99a0.77 0.76-25.1 0 1-0.84-0.3c-6.48-9.59-14.73-8.89-24.99-6.76a0.57 0.57 0 0 1-0.68-0.45c-1.71-9.41-4.24-14.28-12.11-19.83" stroke="#fefaef" vector-effect="non-scaling-stroke"/> <path d="m799.63 573.45-5.78-14.49q-0.19-0.46-0.1-0.96 19.4-105.42-30.38-197.97c-49.23-91.5-148.03-153.54-252.6-153.42q-72.09 0.08-135.46 33.61c-90.06 47.67-150.7 145.15-154.79 246.83q-1.65 41 7.48 81.2 0.13 0.56 0.61 0.24 14.84-9.79 31.19-2.16a0.69 0.69 0 0 0 0.98-0.56c4.42-43.02 57.68-61.64 84.96-25.71q0.32 0.41 0.78 0.18 5.9-2.97 12.91-3.72" stroke="#90857a" vector-effect="non-scaling-stroke"/> <path d="m799.63 573.45q-8.56-2.91-17.33-2.67c-4.76 0.14-10.31 2.1-15.79 2.45q-0.79 0.05-0.77-0.75c0.15-5.03-0.07-10.56-2.79-14.86q-7.54-11.95-23.02-6.94a0.36 0.36 0 0 1-0.45-0.22c-6.48-17.06-20.93-28.32-39.05-29.29-14.32-0.77-27.8 5.01-36.19 16.92" stroke="#908a8a" vector-effect="non-scaling-stroke"/> <path d="m664.24 538.09-2.83 3.62a0.63 0.62-56.7 0 1-0.8 0.17c-4.16-2.3-8.02-2.17-12.6-2.78" stroke="#90857a" vector-effect="non-scaling-stroke"/> <path d="m648.01 539.1q11.55-21.14 33.56-27.67" stroke="#8e5721" vector-effect="non-scaling-stroke"/> <path d="m681.57 511.43q33.14-7.72 54.83 15.15 1.65 1.74 3.72 2.63 17.18 7.34 33.47 17.26a0.32 0.31-69.5 0 0 0.47-0.22c28.59-160.55-95.75-315.94-260.05-318.14q-82.12-1.1-149.58 43.17c-88.16 57.86-136.67 166.79-119.58 271.28q0.08 0.52 0.52 0.22 9.19-6.22 19.04-11.36c6.51-3.39 10.88-10.02 17.05-13.79q26.73-16.31 56.12-1.64" stroke="#85391d" vector-effect="non-scaling-stroke"/> <path d="m337.58 515.99q12.92 7.42 21.85 20.53" stroke="#8e5721" vector-effect="non-scaling-stroke"/> <path d="m648.01 539.1q-10.33 1.45-17.82 9.09-1.31 1.33-3.92 1.88" stroke="#fcc786" vector-effect="non-scaling-stroke"/> <path d="m626.27 550.07c27.62-87.46-42.23-174.95-133.93-162.77-41.62 5.53-75.14 31.95-93.39 69.65" stroke="#fccc96" vector-effect="non-scaling-stroke"/> <path d="m398.95 456.95-1.54 0.77" stroke="#bb5722" vector-effect="non-scaling-stroke"/> <path d="m397.41 457.72q-7.85 1.3-15.51 4.29a0.77 0.76 58.3 0 1-0.86-0.21c-7.59-8.84-18.36-11.24-28.45-15.41" stroke="#8e5721" vector-effect="non-scaling-stroke"/> <path d="m681.57 511.43q-0.59-39.86-17.69-75.59c-30.31-63.34-93.11-102.35-163.68-98.39-66.98 3.76-123.28 46.83-147.61 108.94" stroke="#f17b29" vector-effect="non-scaling-stroke"/> <path d="m352.59 446.39q-5.96-2.61-12.2-5c-11.11-4.25-19 12.42-7.97 17.46 5.73 2.61 12.53 6.38 18.76 7.18q4.52 0.57 8.38 3.31 0.3 0.22-0.05 0.35c-11.14 4.08-22.87 9.19-34.46 11.66" stroke="#85391d" vector-effect="non-scaling-stroke"/> <path d="m325.05 481.35q-0.36-2.02-1.77-2.14-1.25-0.11-1.53 0.9-0.25 0.86 0.61 2.15" stroke="#f3ad92" vector-effect="non-scaling-stroke"/> <path d="m322.36 482.26c-20.31 5.85-36.96 8.09-55.73 11.18q-3.17 0.52 0.03 0.71c4.2 0.24 9.06 0.58 13.78 0.17q1.46-0.12 2.37 0.6" stroke="#85391d" vector-effect="non-scaling-stroke"/> <path d="m282.81 494.92q0.52 3.23 3.78 0.32" stroke="#f3a981" vector-effect="non-scaling-stroke"/> <path d="m286.59 495.24q0.35-0.78 1.34-0.87 26.76-2.49 52.62-10.48" stroke="#85391d" vector-effect="non-scaling-stroke"/> <path d="m340.55 483.89-2.97 32.1" stroke="#f17b29" vector-effect="non-scaling-stroke"/> <path d="m711.88 674.24-58.86-6.41" stroke="#f3ad92" vector-effect="non-scaling-stroke"/> <path d="m653.02 667.83-5.83-1.27a0.16 0.16 0 0 1 0.01-0.31q0.2-0.02 0.44 0.01a0.13 0.13 0 0 0 0.11-0.22l-0.34-0.34a0.72 0.72 0 0 1 0.42-1.22c3.87-0.47 6.91 0.64 10.17-2.03q0.74-0.6-0.18-0.82l-1.89-0.45a0.53 0.53 0 0 1-0.41-0.54q0.05-1.07-1.09-1.38-0.51-0.15-0.18-0.56 0.24-0.31 0.75-0.24" stroke="#fefaef" vector-effect="non-scaling-stroke"/> <path d="m643.53 575.19q0.67-0.27 0.69-1.64 0-0.48-0.31-0.85c-1.16-1.37-0.29-2.52 1.15-3.09 5.74-2.27 14.61-6.82 16.26-12.83q3.18-11.51 4.02-15.44 0.53-2.47-1.1-3.25" stroke="#fefaef" vector-effect="non-scaling-stroke"/> <path d="m626.27 550.07q-1.74 2.18-4.86 2.4-10.08 0.71-17.8 4.81-0.43 0.23-0.9 0.06l-1.78-0.68" stroke="#fefaef" vector-effect="non-scaling-stroke"/> <path d="m600.93 556.66c2.41-3.02 6.53-8.11 6.07-12.14-0.81-6.96-5.77-8.59-12.31-8.99q-7.53-0.47-15-0.58-1.31-0.02-0.84-1.23 4.77-12.37 9.02-25.2 1.23-3.72 0.65-6.14-1.13-4.7-6.08-6.3" stroke="#908a8a" vector-effect="non-scaling-stroke"/> <path d="m582.44 496.08q-2.99-3.6-7.61-5.41c-1.67-0.66-3.64-0.53-5.49-0.77" stroke="#fccc96" vector-effect="non-scaling-stroke"/> <path d="m569.34 489.9q2.71-3.24 6.15-4.64c6.8-2.77 11.92 3.17 9.92 9.73q-0.28 0.91 0.82 1.51a0.68 0.68 0 0 0 0.93-0.28q2.2-4.3 0.47-9.26c-4.86-13.97-18.23-5.15-26.13 1.21" stroke="#908a8a" vector-effect="non-scaling-stroke"/> <path d="m561.5 488.17q-1.47-2.26-4.8-3.11" stroke="#fccc96" vector-effect="non-scaling-stroke"/> <path d="m556.7 485.06q7.2-5.05 10.42-12.97a0.55 0.54-10.6 0 0-0.88-0.6q-5.83 5.48-12.43 10-0.12 0.07-0.25 0.03t-0.27-0.09a0.16 0.15-54.1 0 1-0.04-0.27c7.08-5.46 12.04-11.89 13.96-20.78a1.42 1.4-61.8 0 0-0.37-1.27q-1.43-1.45-3.05 0.42-6.03 6.93-11.42 14.43a0.24 0.24 0 0 1-0.42-0.22c1.91-5.5 2.81-17.73-6.66-16.74-8.59 0.89-16.87 12.95-21.15 19.78q-0.2 0.33-0.57 0.2l-12.84-4.6a0.58 0.58 0 0 1-0.37-0.66c0.35-1.75 4.67-14.39 8.26-10.1q3.44 4.1 6.05 9.1a0.77 0.77 0 0 0 1.15 0.25q0.62-0.48 0.18-1.61c-1.44-3.63-5.94-15.38-11.42-13.29-6.27 2.4-7.25 8.35-7.53 14.55q-0.02 0.44-0.46 0.46l-3.66 0.14a0.58 0.58 0 0 1-0.6-0.51c-1.33-10.48-8.8-11.74-17.6-10.99q-0.54 0.05-0.66-0.48c-1.57-6.79-2.95-13.77-9.35-17.82q-6.63-4.19-15.06-0.6" stroke="#908a8a" vector-effect="non-scaling-stroke"/> <path d="m459.66 440.82-60.71 16.13" stroke="#bd8a8b" vector-effect="non-scaling-stroke"/> <path d="m556.7 485.06-5.36-2.77a1.4 1.36-37.6 0 0-0.95-0.11q-2.51 0.61-4.05 2.7-0.25 0.34 0.14 0.49l12.36 4.67q0.51 0.2 0.97-0.09 1.02-0.62 1.69-1.78" stroke="#8e5721" vector-effect="non-scaling-stroke"/> <path d="m569.34 489.9-2.72 1.68q-0.48 0.29 0.07 0.43l15.75 4.07" stroke="#8e5721" vector-effect="non-scaling-stroke"/> <path d="m600.93 556.66q-2.18 2.63-2.59 3.66-7.94 19.79-15.38 39.97a0.57 0.57 0 0 0 0.62 0.76c5.48-0.86 8.76 4.51 11.62 9.76q1.81 3.32 1.09 5.48-3.85 11.46-7.12 23.26-0.15 0.54 0.42 0.51 7.45-0.48 14.89-0.91 0.31-0.02 0.5 0.11 0.2 0.15 0.29 0.37 0.19 0.44-0.28 0.54l-4.11 0.82a0.45 0.45 0 0 0 0.08 0.9l6.99 0.15a0.85 0.84 90 0 0 0.86-0.87l-0.23-12.43a1.19 1.19 0 0 1 1.18-1.21l7.96-0.11q0.57 0 0.57-0.57l-0.06-35.73q0-0.64 0.65-0.64l4.73 0.06a0.84 0.84 0 0 0 0.85-0.83l0.13-14.24a0.33 0.32-89.1 0 1 0.32-0.32l18.62 0.04" stroke="#90857a" vector-effect="non-scaling-stroke"/> <path d="m643.53 575.19q1 2.46 0.7 5.46a1.21 1.21 0 0 0 1.2 1.34l17.71 0.02a0.86 0.84-12.6 0 1 0.77 0.48l2.37 5.07q0.27 0.56 0.88 0.71l4.14 0.97a2.57 2.56 6.3 0 1 1.98 2.47l0.31 26.06a0.57 0.57 0 0 0 0.75 0.53l0.32-0.1a0.51 0.51 0 0 0 0.34-0.48v-31.22q0-0.49 0.5-0.51l9.32-0.32q0.48-0.02 0.47-0.49l-0.13-9.26q-0.01-0.67 0.66-0.67h8.06q0.64 0 0.65 0.63l0.59 30.06q0.01 0.57 0.58 0.57l1.94-0.03q0.66-0.01 0.68-0.67l0.54-13.63q0.03-0.68 0.71-0.68h1.92q0.6 0 0.31 0.53-1.26 2.34-0.03 4.72a0.56 0.55 33 0 0 1.05-0.22l0.27-4.68a0.71 0.68 74.8 0 1 0.29-0.53l0.66-0.44a1.01 1 76 0 0 0.43-0.72q0.45-3.71 0.24-7.43-0.02-0.46 0.43-0.46l12.13-0.06q0.73 0 0.73-0.73v-1.98q0-0.75 0.75-0.75h16.32a0.58 0.57-0 0 1 0.58 0.57l0.14 12.7a0.48 0.48 0 0 0 0.48 0.47l27.19 0.04q1 0 1.06-0.99l0.31-5.09q0.03-0.45 0.48-0.45h12.94a0.75 0.75 0 0 1 0.75 0.75v7.49q0 0.51 0.49 0.67 4.26 1.3 7.93 3.79c4.1 2.78 12.54 1.91 13.39 6.24a1.18 1.16 13.6 0 0 0.46 0.74q1.69 1.25 2.98 1.33 13.78 0.76 27.49 2.34 0.93 0.11 1.41 0.51a0.86 0.86 0 0 1-0.5 1.51q-15.11 1.02-30.16 1.84-2.38 0.13-4.2 2.97a1.3 1.29-32.4 0 0-0.2 0.87c0.69 5.7 8.41 5.19 13.98 5.45q23.72 1.14 47.43 2.47 2.43 0.13 2.28 1.85a0.98 0.98 0 0 1-0.89 0.89q-38.33 3.28-76.08 4.16c-31.76 0.75-77.47 0.45-120.95 1.68a0.28 0.26-73.9 0 0-0.23 0.14q-0.2 0.35 0.12 0.36c45.25 0.88 90.5 1.21 135.75 1.95q18.3 0.29 50.44 3.11c0.91 0.08 2.35 0.65 2.97 1.18a0.93 0.93 0 0 1-0.53 1.64c-25.84 1.84-54.14 2.16-77.63 3.03q-0.19 0-0.31 0.17-0.22 0.32 0.17 0.36 21.35 2.27 42.72 4.6 4.08 0.45 8.32 1.32 0.58 0.12 0.25 0.62-1.15 1.72-2.97 1.72-32.5-0.03-64.99 0.05c-3.81 0.01-8.72 1.33-8.14 6.11a0.91 0.9-81.4 0 0 0.52 0.72q2.24 1.05 2.93 1.1 23.4 1.7 46.56 5.38c0.73 0.12 2.04 0.7 2.53 1.07a1.07 1.07 0 0 1-0.48 1.91q-3.84 0.63-6.86 0.67c-17.52 0.26-34.84 0.09-52.48-2.22q-43.68-5.72-87.52-10.08" stroke="#908a8a" vector-effect="non-scaling-stroke"/> <path d="m655 658.46-68.28-6.8q-0.52-0.06-0.65 0.44l-2.39 8.6" stroke="#90857a" vector-effect="non-scaling-stroke"/> <path d="m583.68 660.7q-1.44 2.04-0.28 3.99a2.49 2.47-13.8 0 0 2.03 1.22q15.38 0.67 31 1.59 1.77 0.11 2.86 0.99a0.43 0.42-28.2 0 1-0.23 0.75q-15.37 1.44-30.81 0.93-1.19-0.04-0.65 1.02 2.39 4.64 2.91 9.83 0.05 0.52 0.58 0.52 55.93-0.1 111.85-0.02c1.7 0 2.25 0.88 3.83-0.74q3.55-3.65 5.11-6.54" stroke="#85391d" vector-effect="non-scaling-stroke"/> <path d="m711.88 674.24 24.69 2.53" stroke="#908a8a" vector-effect="non-scaling-stroke"/> <path d="m307.13 674.12 5.39 6.71a2.33 2.32 70.5 0 0 1.81 0.87l84.44-0.24q0.51 0 0.59-0.52 1.42-9.59 7.7-16.97" stroke="#85391d" vector-effect="non-scaling-stroke"/> <path d="m381.37 508.17-6.89-18.67q-0.18-0.49-0.65-0.71c-7.02-3.23-8.89-4.91-7.57-13.3a0.54 0.53 84.5 0 0-0.71-0.59l-25 8.99" stroke="#8e5721" vector-effect="non-scaling-stroke"/> <path d="m286.59 495.24q-1.46-2.25-3.78-0.32" stroke="#90857a" vector-effect="non-scaling-stroke"/> <path d="m322.36 482.26 2.69-0.91" stroke="#908a8a" vector-effect="non-scaling-stroke"/> <path d="m397.41 457.72q0.26 1.05 2.1 0.58c16.9-4.33 33.83-7.35 49.64-11.27q5.57-1.37 10.73 0c9.31 2.49 11.76 10.38 14.12 18.63 6.17 21.56 11.98 43.2 18.1 64.77a0.77 0.76-8.6 0 0 0.77 0.56l2.46-0.12q0.88-0.04 0.69-0.9c-4.74-21.01-10.51-41.75-15.21-62.75q-2.68-11.92-3.78-15.47-3.28-10.53-17.37-10.93" stroke="#4f1516" vector-effect="non-scaling-stroke"/> <path d="m653.02 667.83-69.34-7.13" stroke="#f3a981" vector-effect="non-scaling-stroke"/> <path d="m474.51 271.74a0.31 0.31 0 0 0-0.18 0.56l23.37 17.35a0.31 0.31 0 0 1 0.11 0.34l-8.24 27.41a0.31 0.31 0 0 0 0.49 0.34l21.69-17.2a0.31 0.31 0 0 1 0.38 0l21.75 16.6a0.31 0.31 0 0 0 0.49-0.33l-8.33-27.15a0.31 0.31 0 0 1 0.11-0.34l22.91-17.28a0.31 0.31 0 0 0-0.19-0.56l-28.71 0.05a0.31 0.31 0 0 1-0.3-0.21l-8.53-26.23a0.31 0.31 0 0 0-0.59 0.01l-7.83 26.18a0.31 0.31 0 0 1-0.3 0.22l-28.1 0.24" stroke="#f3ad92" vector-effect="non-scaling-stroke"/> <path d="m539.96 257.25q0.13-0.17 0.01-0.34l-0.27-0.36a0.59 0.52-83.4 0 0-0.82 0.74q0.49 0.75 1.08-0.04" stroke="#f17b29" vector-effect="non-scaling-stroke"/> <path d="m416.79 275.84a0.32 0.32 0 0 1-0.26 0.3l-16.26 2.85a0.32 0.32 0 0 0-0.08 0.6l15.59 7.4a0.32 0.32 0 0 1 0.18 0.3l-0.85 18.84a0.32 0.32 0 0 0 0.57 0.22l10.94-13.45a0.32 0.32 0 0 1 0.37-0.1l16.53 7.07a0.32 0.32 0 0 0 0.4-0.46l-9.66-15.46a0.32 0.32 0 0 1 0.03-0.38l11.68-14.01a0.32 0.32 0 0 0-0.32-0.51l-17.57 4.26a0.32 0.32 0 0 1-0.35-0.15l-9.45-15.39a0.32 0.32 0 0 0-0.59 0.15l-0.9 17.92" stroke="#f3ad92" vector-effect="non-scaling-stroke"/> <path d="m606.21 304.57a0.34 0.34 0 0 1 0.4 0.1l11.62 14.68a0.34 0.34 0 0 0 0.6-0.24l-1.4-18.21a0.34 0.34 0 0 1 0.2-0.34l15.65-6.86a0.34 0.34 0 0 0-0.05-0.64l-18.28-4.96a0.34 0.34 0 0 1-0.25-0.28l-2.43-18.17a0.34 0.34 0 0 0-0.64-0.11l-7.79 15.41a0.34 0.34 0 0 1-0.4 0.17l-15.87-4.73a0.34 0.34 0 0 0-0.37 0.54l11.12 13.97a0.34 0.34 0 0 1 0.03 0.38l-8.79 15.65a0.34 0.34 0 0 0 0.42 0.48l16.23-6.84" stroke="#f3ad92" vector-effect="non-scaling-stroke"/> <path d="m549.83 291.84a2 2 0 0 0-2-2 2 2 0 0 0-2 2 2 2 0 0 0 2 2 2 2 0 0 0 2-2" stroke="#f17b29" vector-effect="non-scaling-stroke"/> <path d="m477.54 293.18a2.2 1.97 9.2 0 0-1.8567-2.2964 2.2 1.97 9.2 0 0-2.4867 1.593 2.2 1.97 9.2 0 0 1.8567 2.2964 2.2 1.97 9.2 0 0 2.4867-1.593" stroke="#f17b29" vector-effect="non-scaling-stroke"/> <path d="m388.84 296.06a2.07 2.07 0 0 0-2.07-2.07 2.07 2.07 0 0 0-2.07 2.07 2.07 2.07 0 0 0 2.07 2.07 2.07 2.07 0 0 0 2.07-2.07" stroke="#f3ad92" vector-effect="non-scaling-stroke"/> <path d="m374.59 328.82 7.19 2.88a0.58 0.58 0 0 0 0.69-0.88l-4.43-5.98a2.17 2.16-44 0 1 0.05-2.63l5.23-6.62a0.55 0.55 0 0 0-0.55-0.88q-3.28 0.65-6.6 1.94c-3.51 1.36-6.42-4.93-7.87-7.33a0.49 0.48-60.5 0 0-0.9 0.25l0.04 8.32q0.01 1.12-1.09 1.32l-7.29 1.35a0.74 0.74 0 0 0-0.19 1.39l7.92 3.85q0.47 0.23 0.42 0.75l-0.79 7.77q-0.33 3.28 1.75 0.73l4.72-5.79q0.69-0.85 1.7-0.44" stroke="#f3ad92" vector-effect="non-scaling-stroke"/> <path d="m686.69 325.12a2.44 2.44 0 0 0-2.44-2.44 2.44 2.44 0 0 0-2.44 2.44 2.44 2.44 0 0 0 2.44 2.44 2.44 2.44 0 0 0 2.44-2.44" stroke="#f3ad92" vector-effect="non-scaling-stroke"/> <path d="m541.45 324.92a1.94 1.94 0 0 0-1.94-1.94 1.94 1.94 0 0 0-1.94 1.94 1.94 1.94 0 0 0 1.94 1.94 1.94 1.94 0 0 0 1.94-1.94" stroke="#f3ad92" vector-effect="non-scaling-stroke"/> <path d="m647.87 327.94a2.27 2.27 0 0 0-2.27-2.27 2.27 2.27 0 0 0-2.27 2.27 2.27 2.27 0 0 0 2.27 2.27 2.27 2.27 0 0 0 2.27-2.27" stroke="#f17b29" vector-effect="non-scaling-stroke"/> <path d="m581.79 333.67a2.15 2.15 0 0 0-2.15-2.15 2.15 2.15 0 0 0-2.15 2.15 2.15 2.15 0 0 0 2.15 2.15 2.15 2.15 0 0 0 2.15-2.15" stroke="#f17b29" vector-effect="non-scaling-stroke"/> <path d="m443.5 337.31a2.31 2.31 0 0 0-2.31-2.31 2.31 2.31 0 0 0-2.31 2.31 2.31 2.31 0 0 0 2.31 2.31 2.31 2.31 0 0 0 2.31-2.31" stroke="#f3ad92" vector-effect="non-scaling-stroke"/> <path d="m412.56 338.03a2 2 0 0 0-2-2 2 2 0 0 0-2 2 2 2 0 0 0 2 2 2 2 0 0 0 2-2" stroke="#f3a981" vector-effect="non-scaling-stroke"/> <path d="m328.69 337.94a2.49 2.25-9.3 0 0-2.8209-1.818 2.49 2.25-9.3 0 0-2.0937 2.6228 2.49 2.25-9.3 0 0 2.8209 1.818 2.49 2.25-9.3 0 0 2.0937-2.6228" stroke="#f17b29" vector-effect="non-scaling-stroke"/> <path d="m362.78 344.59a2.42 2.42 0 0 0-2.42-2.42 2.42 2.42 0 0 0-2.42 2.42 2.42 2.42 0 0 0 2.42 2.42 2.42 2.42 0 0 0 2.42-2.42" stroke="#f3ad92" vector-effect="non-scaling-stroke"/> <path d="m641.45 346.84a2.05 2.05 0 0 0-2.05-2.05 2.05 2.05 0 0 0-2.05 2.05 2.05 2.05 0 0 0 2.05 2.05 2.05 2.05 0 0 0 2.05-2.05" stroke="#f17b29" vector-effect="non-scaling-stroke"/> <path d="m625.01 348.74a2.48 2.48 0 0 0-2.48-2.48 2.48 2.48 0 0 0-2.48 2.48 2.48 2.48 0 0 0 2.48 2.48 2.48 2.48 0 0 0 2.48-2.48" stroke="#f3ad92" vector-effect="non-scaling-stroke"/> <path d="m391.23 354.58a2.22 2.22 0 0 0-2.22-2.22 2.22 2.22 0 0 0-2.22 2.22 2.22 2.22 0 0 0 2.22 2.22 2.22 2.22 0 0 0 2.22-2.22" stroke="#f17b29" vector-effect="non-scaling-stroke"/> <path d="m680.88 359.74a2.29 2.29 0 0 0-2.29-2.29 2.29 2.29 0 0 0-2.29 2.29 2.29 2.29 0 0 0 2.29 2.29 2.29 2.29 0 0 0 2.29-2.29" stroke="#f3ad92" vector-effect="non-scaling-stroke"/> <path d="m713.12 365.32a1.79 1.79 0 0 0-1.79-1.79 1.79 1.79 0 0 0-1.79 1.79 1.79 1.79 0 0 0 1.79 1.79 1.79 1.79 0 0 0 1.79-1.79" stroke="#f3ad92" vector-effect="non-scaling-stroke"/> <path d="m330.52 373.44a2.6 2.6 0 0 0-2.6-2.6 2.6 2.6 0 0 0-2.6 2.6 2.6 2.6 0 0 0 2.6 2.6 2.6 2.6 0 0 0 2.6-2.6" stroke="#f17b29" vector-effect="non-scaling-stroke"/> <path d="m368.18 390.4a2.67 2.67 0 0 0-2.67-2.67 2.67 2.67 0 0 0-2.67 2.67 2.67 2.67 0 0 0 2.67 2.67 2.67 2.67 0 0 0 2.67-2.67" stroke="#f17b29" vector-effect="non-scaling-stroke"/> <path d="m689.34 389.96a2.26 2.26 0 0 0-2.26-2.26 2.26 2.26 0 0 0-2.26 2.26 2.26 2.26 0 0 0 2.26 2.26 2.26 2.26 0 0 0 2.26-2.26" stroke="#f17b29" vector-effect="non-scaling-stroke"/> <path d="m336.1 390.44a1.23 1 60 0 0 0.251-1.5652 1.23 1 60 0 0-1.481-0.5652 1.23 1 60 0 0-0.251 1.5652 1.23 1 60 0 0 1.481 0.5652" stroke="#f17b29" vector-effect="non-scaling-stroke"/> <path d="m653.06 393.51a2.7 2.7 0 0 0-2.7-2.7 2.7 2.7 0 0 0-2.7 2.7 2.7 2.7 0 0 0 2.7 2.7 2.7 2.7 0 0 0 2.7-2.7" stroke="#f3ad92" vector-effect="non-scaling-stroke"/> <path d="m719.77 393.88a0.97 0.81-12.6 0 0-1.1233-0.5789 0.97 0.81-12.6 0 0-0.7699 1.0021 0.97 0.81-12.6 0 0 1.1233 0.5789 0.97 0.81-12.6 0 0 0.7699-1.0021" stroke="#f17b29" vector-effect="non-scaling-stroke"/> <path d="m292.38 396.39a1.06 0.9 52.7 0 0 0.0736-1.3886 1.06 0.9 52.7 0 0-1.3582-0.2978 1.06 0.9 52.7 0 0-0.0736 1.3886 1.06 0.9 52.7 0 0 1.3582 0.2978" stroke="#f3ad92" vector-effect="non-scaling-stroke"/> <path d="m287.52 422.78q-0.34 0.57-0.97 0.34l-16.77-6.24a0.4 0.4 0 0 0-0.47 0.6l11.39 17.06a1.33 1.31-46.3 0 1 0.02 1.43l-11.27 18.05q-0.74 1.18 0.56 0.68l18.3-7.1q0.5-0.2 0.79 0.25l11.33 17.3a0.5 0.5 0 0 0 0.92-0.27l-0.08-20.96a1.05 1.04 80.5 0 1 0.71-1.01l17.51-6.07q1.35-0.46 0.01-0.97l-19.74-7.43a0.82 0.81 9.1 0 1-0.52-0.71l-1.11-21.15a0.39 0.39 0 0 0-0.73-0.18l-9.88 16.38" stroke="#f3ad92" vector-effect="non-scaling-stroke"/> <path d="m721.62 447.26a0.44 0.44 0 0 1 0.3 0.4l0.94 23.44a0.44 0.44 0 0 0 0.82 0.2l10.94-18.7a0.44 0.44 0 0 1 0.54-0.18l18.61 7.31a0.44 0.44 0 0 0 0.54-0.65l-12.77-20.11a0.44 0.44 0 0 1-0.01-0.46l11.72-19.47a0.44 0.44 0 0 0-0.55-0.63l-18.05 7.53a0.44 0.44 0 0 1-0.55-0.17l-10.28-16.87a0.44 0.44 0 0 0-0.82 0.22l-0.37 22.17a0.44 0.44 0 0 1-0.27 0.4l-20.28 8.11a0.44 0.44 0 0 0 0.03 0.82l19.51 6.64" stroke="#f3ad92" vector-effect="non-scaling-stroke"/> <path d="m354.13 422.39a2.63 2.63 0 0 0-2.63-2.63 2.63 2.63 0 0 0-2.63 2.63 2.63 2.63 0 0 0 2.63 2.63 2.63 2.63 0 0 0 2.63-2.63" stroke="#f3ad92" vector-effect="non-scaling-stroke"/> <path d="m675.93 425.34a2.56 2.56 0 0 0-2.56-2.56 2.56 2.56 0 0 0-2.56 2.56 2.56 2.56 0 0 0 2.56 2.56 2.56 2.56 0 0 0 2.56-2.56" stroke="#f17b29" vector-effect="non-scaling-stroke"/> <path d="m297.72 470.01a1.56 1.24 18.4 0 0-1.0888-1.669 1.56 1.24 18.4 0 0-1.8716 0.6842 1.56 1.24 18.4 0 0 1.0888 1.669 1.56 1.24 18.4 0 0 1.8716-0.6842" stroke="#f17b29" vector-effect="non-scaling-stroke"/> <path d="m745.4 496.64a3.91 3.91 0 0 0-3.91-3.91 3.91 3.91 0 0 0-3.91 3.91 3.91 3.91 0 0 0 3.91 3.91 3.91 3.91 0 0 0 3.91-3.91" stroke="#f17b29" vector-effect="non-scaling-stroke"/> <path d="m316.83 498.44a2.73 2.3-7.6 0 0-3.0102-1.9187 2.73 2.3-7.6 0 0-2.4018 2.6409 2.73 2.3-7.6 0 0 3.0102 1.9187 2.73 2.3-7.6 0 0 2.4018-2.6409" stroke="#f3ad92" vector-effect="non-scaling-stroke"/> <path d="m709.8 501.78a2.56 2.56 0 0 0-2.56-2.56 2.56 2.56 0 0 0-2.56 2.56 2.56 2.56 0 0 0 2.56 2.56 2.56 2.56 0 0 0 2.56-2.56" stroke="#f3ad92" vector-effect="non-scaling-stroke"/> <path d="m490.4 544.84 105.41 4.64q0.71 0.03 0.99-0.62l2.17-5.05q0.31-0.71-0.46-0.8-3.57-0.45-10.01-0.75-49.96-2.29-99.97-4.29-0.5-0.02-0.64-0.5-9.13-31.63-18.04-63.32c-4.16-14.76-5.31-24.85-24.12-19.48q-32.2 9.19-64.64 17.85a0.86 0.86 0 0 1-1.01-0.49c-4.57-10.56-13.07-13.11-23-16.67q-0.59-0.21-0.82 0.37l-1.55 4.02a0.65 0.64 20.1 0 0 0.39 0.83c8.44 3 19.62 5.89 18.51 17.71-0.4 4.27 1.96 3.96 5.09 3.09q35.48-9.85 71.07-19.31c7.31-1.95 10.57 3.52 12.31 9.79q8.08 29.07 16.18 58.14 1.18 4.23 1.81 7.14 0.16 0.74-0.6 0.72l-34.54-0.62a0.87 0.87 0 0 1-0.82-0.61l-19.35-60.63q-0.18-0.56-0.74-0.44l-3.55 0.73q-0.62 0.13-0.43 0.74l18.61 59.74q0.16 0.53-0.39 0.52l-31.99-0.36a1.09 1.08 80.1 0 1-1-0.71l-18.52-50.4q-0.23-0.61-0.86-0.45l-4.22 1.11q-0.57 0.15-0.37 0.7 20.56 56.77 40.9 113.63c2.3 6.43 7.21 7.91 14 8.19q75.65 3.11 151.29 6.69 0.5 0.03 0.42-0.48c-0.73-4.36-3.17-7.33-7.86-7.54q-36.93-1.66-73.89-3.42-0.49-0.02-0.62-0.49l-15.77-58.14a0.62 0.62 0 0 1 0.63-0.78" stroke="#908a8a" vector-effect="non-scaling-stroke"/> <path d="m499.28 469.5c-1.41-6.45-5.65-8.53-11.91-8.76q-2.6-0.09-1.96 2.42l7.12 28.03a0.4 0.39 43.4 0 0 0.77-0.02q1.74-9.25 5.42-17.72 0.95-2.17 0.56-3.95" stroke="#4f1516" vector-effect="non-scaling-stroke"/> <path d="m529.12 479.2q6.02 2.08 9.82 4.67a1.07 1.06 52.6 0 0 0.94 0.13q1.11-0.39 1.72-2.06" stroke="#8e5721" vector-effect="non-scaling-stroke"/> <path d="m541.6 481.94 2.47-1.26a1.35 1.31-89.5 0 0 0.6-0.61q4.07-8.01 4.32-16.99 0.01-0.48-0.27-0.87c-2.76-3.81-11.46 5.26-13.23 7.54q-4.26 5.5-6.37 9.45" stroke="#908a8a" vector-effect="non-scaling-stroke"/> <path d="m541.6 481.94q-1.14-2.83-3.41-4.63-3.61-2.85-9.07 1.89" stroke="#fccc96" vector-effect="non-scaling-stroke"/> <path d="m469.97 531.01 2.74-0.06a0.55 0.55 0 0 0 0.52-0.7q-7.85-28.01-15.74-55.99c-1.07-3.8-1.82-8.16-6.89-6.84q-0.5 0.13-0.35 0.63l18.98 62.41q0.17 0.56 0.74 0.55" stroke="#4f1516" vector-effect="non-scaling-stroke"/> <path d="m448.44 530.33a0.34 0.34 0 0 0 0.31 0.24l14.78 0.34a0.34 0.34 0 0 0 0.33-0.44l-19.25-60.18a0.34 0.34 0 0 0-0.41-0.23l-13.26 3.47a0.34 0.34 0 0 0-0.24 0.43l17.74 56.37" stroke="#702019" vector-effect="non-scaling-stroke"/> <path d="m497.16 496.57q-2.77 2.78-1.85 6.66 4.24 17.84 6.6 25.86 0.27 0.91 0.48-0.02l0.97-4.25" stroke="#702019" vector-effect="non-scaling-stroke"/> <path d="m503.36 524.82 14.63-41.92a0.52 0.51 23.7 0 0-0.25-0.63q-6.16-3.15-12.8-5.05-1.48-0.42-1.94 1.04l-5.84 18.31" stroke="#8e5721" vector-effect="non-scaling-stroke"/> <path d="m503.36 524.82-6.2-28.25" stroke="#dc6225" vector-effect="non-scaling-stroke"/> <path d="m428.44 529.96a0.61 0.61 0 0 0 0.44 0.4l1.73 0.39a0.61 0.61 0 0 0 0.71-0.77l-15.89-51.1a0.61 0.61 0 0 0-0.69-0.42l-2.74 0.5a0.61 0.61 0 0 0-0.47 0.8l16.91 50.2" stroke="#702019" vector-effect="non-scaling-stroke"/> <path d="m409.65 529.97a0.3 0.3 0 0 0 0.28 0.2l12.47 0.31a0.3 0.3 0 0 0 0.29-0.4l-16.99-48.96a0.3 0.3 0 0 0-0.36-0.19l-11.81 3.08a0.3 0.3 0 0 0-0.21 0.39l16.33 45.57" stroke="#702019" vector-effect="non-scaling-stroke"/> <path d="m506.92 531.29a0.31 0.31 0 0 0 0.28 0.41l12.91 0.65a0.31 0.31 0 0 0 0.31-0.21l15.01-42.72a0.31 0.31 0 0 0-0.17-0.39l-11.08-5.08a0.31 0.31 0 0 0-0.42 0.18l-16.84 47.16" stroke="#8e5721" vector-effect="non-scaling-stroke"/> <path d="m526.72 532.54 17.77 0.75a0.66 0.66 0 0 0 0.65-0.45c3.99-11.86 7.48-24.63 12.87-35.91q0.24-0.49-0.28-0.67l-15.02-5.08q-1.35-0.46-1.83 0.88l-14.35 40.21a0.21 0.2 10.4 0 0 0.19 0.27" stroke="#8e5721" vector-effect="non-scaling-stroke"/> <path d="m551.99 533.64 19.43 0.78q0.55 0.02 0.74-0.5l10.51-29.32a1.87 1.87 0 0 0-1.37-2.46l-15.58-3.35q-0.6-0.13-0.99 0.35-1.69 2.07-2.01 2.89-6.02 15.4-11.02 31.2-0.13 0.39 0.29 0.41" stroke="#85391d" vector-effect="non-scaling-stroke"/> <path d="m508.97 589.99c1.36 8.79 19.15 8.28 25.74 8.58" stroke="#8e5721" vector-effect="non-scaling-stroke"/> <path d="m534.71 598.57 16.34 0.87q0.54 0.03 0.71-0.48l14.65-43.04q0.22-0.65-0.46-0.68l-16.77-0.9a0.57 0.56-76.1 0 0-0.56 0.34l-14.75 34.53q-0.15 0.35-0.49 0.49-0.2 0.09-0.4 0.1" stroke="#85391d" vector-effect="non-scaling-stroke"/> <path d="m532.98 589.8q-0.37-0.19-0.22-0.8c2.76-11.67 6.83-22.78 10.51-34.16a0.44 0.44 0 0 0-0.51-0.57l-0.62 0.15q-0.54 0.12-0.74 0.63l-12.76 32.34q-0.35 0.88-0.95 0.16-0.43-0.51-0.17-1.8 3.21-15.93 8.44-31.16 0.24-0.7-0.49-0.74l-16.1-0.96q-0.5-0.03-0.68 0.44c-4.91 12.71-8.44 20.77-9.97 31.67" stroke="#8e5721" vector-effect="non-scaling-stroke"/> <path d="m508.72 585q-2.24-5.11-1.24-10.97" stroke="#4f1516" vector-effect="non-scaling-stroke"/> <path d="m507.48 574.03 5.39-20.73q0.14-0.54-0.41-0.54l-8.65-0.08" stroke="#85391d" vector-effect="non-scaling-stroke"/> <path d="m503.81 552.68q-1.42-0.81-4.53-0.33-0.5 0.08-0.39 0.57 3.72 17.27 8.12 32.32 0.63 2.15 1.96 4.75" stroke="#4f1516" vector-effect="non-scaling-stroke"/> <path d="m503.81 552.68 3.67 21.35" stroke="#b2391d" vector-effect="non-scaling-stroke"/> <path d="m508.72 585q1.13 2.82 0.25 4.99" stroke="#bb5722" vector-effect="non-scaling-stroke"/> <path d="m532.98 589.8 0.25 0.18q0.3 0.21 0.11 0.51c-1.23 1.98 0.05 5.1 1.51 6.52q0.3 0.31 0.16 0.71l-0.3 0.85" stroke="#f17b29" vector-effect="non-scaling-stroke"/> <path d="m558.45 599.68 1.54 0.55a0.51 0.51 0 0 0 0.65-0.31l13.03-37a7.59 0.74-70.6 0 0 1.83-7.4l-1.12-0.39a7.59 0.74-70.6 0 0-3.22 6.91l-13.02 36.99a0.51 0.51 0 0 0 0.31 0.65" stroke="#908a8a" vector-effect="non-scaling-stroke"/> <path d="m590.38 556.92a0.33 0.33 0 0 0-0.29-0.44l-4.44-0.24a0.33 0.33 0 0 0-0.33 0.22l-15.48 43.67a0.33 0.33 0 0 0 0.33 0.44l3.26-0.2a0.33 0.33 0 0 0 0.29-0.21l16.66-43.24" stroke="#908a8a" vector-effect="non-scaling-stroke"/> <path d="m316.03 582.02a0.67 0.67 0 0 0-0.6511-0.6885l-3.3786-0.0944a0.67 0.67 0 0 0-0.6885 0.6511l-0.038 1.3594a0.67 0.67 0 0 0 0.6511 0.6885l3.3786 0.0944a0.67 0.67 0 0 0 0.6885-0.6511l0.038-1.3594" stroke="#908a8a" vector-effect="non-scaling-stroke"/> <path d="m690.1 581.57a0.74 0.74 0 0 0-1.34 0.36q-0.09 0.92 0.54 1.44 0.5 0.42 0.83-0.16 0.5-0.89-0.03-1.64" stroke="#908a8a" vector-effect="non-scaling-stroke"/> <path d="m714.42 588.45a0.33 0.32 23.7 0 0 0.42-0.16q0.46-0.99-0.2-1.75a0.91 0.9 10.1 0 0-1.48 1.03q0.25 0.45 1.26 0.88" stroke="#908a8a" vector-effect="non-scaling-stroke"/> <path d="m651.23 588.76-0.02-1.38a0.43 0.43 0 0 0-0.43-0.43h-0.19a3.1 0.94-0.7 0 0-3.09 0.98v0.36a3.1 0.94-0.7 0 0 3.11 0.9h0.19a0.43 0.43 0 0 0 0.43-0.43" stroke="#908a8a" vector-effect="non-scaling-stroke"/> <path d="m316.02 590.34a0.26 0.26 0 0 0-0.2498-0.2698l-4.2169-0.162a0.26 0.26 0 0 0-0.2698 0.2498l-0.2111 5.496a0.26 0.26 0 0 0 0.2498 0.2698l4.2169 0.162a0.26 0.26 0 0 0 0.2698-0.2498l0.2111-5.496" stroke="#908a8a" vector-effect="non-scaling-stroke"/> <path d="m683.87 597.17 0.86-0.04a0.2 0.2 0 0 0 0.19-0.21l-0.15-3.13a0.81 0.43 87.2 0 0-0.47-0.79l-0.4 0.02a0.81 0.43 87.2 0 0-0.39 0.83l0.15 3.13a0.2 0.2 0 0 0 0.21 0.19" stroke="#908a8a" vector-effect="non-scaling-stroke"/> <path d="m713.01 594.44a1.01 1.01 0 0 0-0.9613-1.0565l-1.9379-0.0913a1.01 1.01 0 0 0-1.0564 0.9613l-0.0368 0.7791a1.01 1.01 0 0 0 0.9613 1.0565l1.9379 0.0913a1.01 1.01 0 0 0 1.0564-0.9613l0.0368-0.7791" stroke="#908a8a" vector-effect="non-scaling-stroke"/> <path d="m369.14 594.03q-0.48-0.31-0.89 0.78a0.86 0.86 0 0 0 0.11 0.82l0.23 0.33a0.74 0.74 0 0 0 1.31-0.22q0.39-1.28-0.4-1.49a0.47 0.02 33.5 0 1-0.36-0.22" stroke="#90857a" vector-effect="non-scaling-stroke"/> <path d="m625.82 595.73a2.35 0.92 1.7 0 0-2.3217-0.9893 2.35 0.92 1.7 0 0-2.3763 0.8499 2.35 0.92 1.7 0 0 2.3217 0.9893 2.35 0.92 1.7 0 0 2.3763-0.8499" stroke="#908a8a" vector-effect="non-scaling-stroke"/> <path d="m668.67 600.59a1.57 1.05 91.7 0 0 1.0961-1.5382 1.57 1.05 91.7 0 0-1.0029-1.6004 1.57 1.05 91.7 0 0-1.0961 1.5382 1.57 1.05 91.7 0 0 1.0029 1.6004" stroke="#908a8a" vector-effect="non-scaling-stroke"/> <path d="m763.96 601.56a0.53 0.53 0 0 0-0.5254-0.5346l-21.619-0.1887a0.53 0.53 0 0 0-0.5346 0.5254l-0.0257 2.9399a0.53 0.53 0 0 0 0.5254 0.5346l21.619 0.1887a0.53 0.53 0 0 0 0.5346-0.5254l0.0257-2.9399" stroke="#908a8a" vector-effect="non-scaling-stroke"/> <path d="m625 602.26a0.37 0.37 0 0 0-0.3693-0.3707l-2.22-0.0038a0.37 0.37 0 0 0-0.3707 0.3693l-0.0052 3.02a0.37 0.37 0 0 0 0.3693 0.3707l2.22 0.0038a0.37 0.37 0 0 0 0.3707-0.3693l0.0052-3.02" stroke="#908a8a" vector-effect="non-scaling-stroke"/> <path d="m315.74 602.67a0.62 0.62 0 0 0-0.6036-0.636l-3.2189-0.0843a0.62 0.62 0 0 0-0.636 0.6035l-0.0785 2.999a0.62 0.62 0 0 0 0.6036 0.636l3.2189 0.0843a0.62 0.62 0 0 0 0.636-0.6035l0.0785-2.999" stroke="#908a8a" vector-effect="non-scaling-stroke"/> <path d="m241.48 603.35-0.02 1.85a0.7 0.7 0 0 0 0.7 0.71l1.8 0.01a1.8 1.24 0.4 0 0 1.81-1.22v-0.78a1.8 1.24 0.4 0 0-1.79-1.26l-1.8-0.01a0.7 0.7 0 0 0-0.7 0.7" stroke="#908a8a" vector-effect="non-scaling-stroke"/> <path d="m293.93 603.01a0.55 0.55 0 0 0-0.5661-0.5335l-1.2195 0.0362a0.55 0.55 0 0 0-0.5334 0.5661l0.1584 5.3376a0.55 0.55 0 0 0 0.5661 0.5335l1.2195-0.0362a0.55 0.55 0 0 0 0.5334-0.5661l-0.1584-5.3376" stroke="#908a8a" vector-effect="non-scaling-stroke"/> <path d="m645.67 606.2 0.09-1.68a0.65 0.65 0 0 0-0.62-0.68l-0.18-0.01a5.39 1.35 3 0 0-5.45 1.07l-0.01 0.28a5.39 1.35 3 0 0 5.31 1.63l0.18 0.01a0.65 0.65 0 0 0 0.68-0.62" stroke="#908a8a" vector-effect="non-scaling-stroke"/> <path d="m668.55 605.25a0.46 0.46 0 0 0-0.64 0.4l-0.13 1.71a0.98 0.98 0 0 0 1.94 0.27q0.36-1.74-1.17-2.38" stroke="#908a8a" vector-effect="non-scaling-stroke"/> <path d="m711.33 608.11a2.93 2.44-3.9 0 0-3.0892-2.235 2.93 2.44-3.9 0 0-2.7572 2.6336 2.93 2.44-3.9 0 0 3.0892 2.235 2.93 2.44-3.9 0 0 2.7572-2.6336" stroke="#908a8a" vector-effect="non-scaling-stroke"/> <path d="m370.77 606.99a1.59 1.46-24.2 0 0-2.0488-0.6799 1.59 1.46-24.2 0 0-0.8518 1.9835 1.59 1.46-24.2 0 0 2.0488 0.6799 1.59 1.46-24.2 0 0 0.8518-1.9835" stroke="#90857a" vector-effect="non-scaling-stroke"/> <path d="m267.33 610.17a3.38 3 1.1 0 0-3.3218-3.0643 3.38 3 1.1 0 0-3.437 2.9345 3.38 3 1.1 0 0 3.3218 3.0643 3.38 3 1.1 0 0 3.437-2.9345" stroke="#908a8a" vector-effect="non-scaling-stroke"/> <path d="m623.02 608.73 1.32-0.25a0.59 0.51 30.7 0 0-0.35-1.05l-1.32 0.23q-0.34 0.06-0.24 0.39 0.07 0.22 0.15 0.43a0.4 0.39 74 0 0 0.44 0.25" stroke="#8e5721" vector-effect="non-scaling-stroke"/> <path d="m690.05 609.91a1.2 0.62 96.2 0 0 0.746-1.126 1.2 0.62 96.2 0 0-0.4868-1.26 1.2 0.62 96.2 0 0-0.746 1.126 1.2 0.62 96.2 0 0 0.4868 1.26" stroke="#90857a" vector-effect="non-scaling-stroke"/> <path d="m684.35 608.11q-0.36-0.35-0.83-0.37a0.65 0.64 78.7 0 0-0.6 0.91l0.74 1.68q0.27 0.61 0.89 0.36 1.43-0.58 1.2-2.06a0.41 0.4-2.6 0 0-0.38-0.34l-0.77-0.06a0.42 0.36 66.2 0 1-0.25-0.12" stroke="#908a8a" vector-effect="non-scaling-stroke"/> <path d="m623.29 615.9 1.6 0.07a0.64 0.64 0 0 0 0.61-0.9q-0.74-1.67-0.25-3.45a0.52 0.52 0 0 0-0.68-0.62l-0.91 0.33a0.96 0.94-6.5 0 0-0.61 0.75l-0.45 3a0.72 0.71 5.3 0 0 0.69 0.82" stroke="#90857a" vector-effect="non-scaling-stroke"/> <path d="m643.48 615.99a2.58 2.06 92.1 0 0 2.1531-2.5028 2.58 2.06 92.1 0 0-1.9641-2.6538 2.58 2.06 92.1 0 0-2.1531 2.5028 2.58 2.06 92.1 0 0 1.9641 2.6538" stroke="#908a8a" vector-effect="non-scaling-stroke"/> <path d="m636.19 612.94q-0.5 1.15 0.12 2.18 0.44 0.72 0.44-0.13v-2.51a0.27 0.27 0 0 0-0.52-0.09q-0.1 0.29-0.04 0.55" stroke="#908a8a" vector-effect="non-scaling-stroke"/> <path d="m668.58 613.78q-0.53-0.18-0.55 0.38l-0.04 0.92a0.72 0.72 0 0 0 1.42 0.19q0.26-1.11-0.83-1.49" stroke="#908a8a" vector-effect="non-scaling-stroke"/> <path d="m313.85 616.22 0.88-0.51a0.35 0.35 0 0 0-0.2-0.66l-1.16 0.08a0.37 0.37 0 0 0-0.24 0.63l0.42 0.42a0.26 0.25 51.4 0 0 0.3 0.04" stroke="#908a8a" vector-effect="non-scaling-stroke"/> <path d="m789.99 617.43a1.14 1.14 0 0 0-1.1078-1.1714l-7.7969-0.2178a1.14 1.14 0 0 0-1.1714 1.1077l-0.0503 1.7993a1.14 1.14 0 0 0 1.1078 1.1714l7.7969 0.2178a1.14 1.14 0 0 0 1.1714-1.1077l0.0503-1.7993" stroke="#908a8a" vector-effect="non-scaling-stroke"/> <path d="m444.49 659.83c0.35 2 0.62 3.2 2.96 3.23q29.63 0.42 59.23 1.9 2.89 0.14 5.64 0.8a0.27 0.27 0 0 1-0.06 0.54l-63.3 1.69q-0.58 0.02-0.31 0.54 3.05 5.85 4.19 12.34 0.12 0.65 0.78 0.65l83.29-0.06q0.64 0 0.72-0.64 1.92-16.14 17.78-22.77" stroke="#85391d" vector-effect="non-scaling-stroke"/> <path d="m555.41 658.05q9.11-2.18 18.59 0.97 0.67 0.22 0.88-0.45l2.2-7.04a0.63 0.63 0 0 0-0.53-0.82c-11.36-1.21-23.98-1.4-35.03-3.91a0.93 0.92-0.4 0 1-0.68-0.66q-0.39-1.43 1.45-1.73 18.58-2.96 37.41-4.52 0.52-0.04 0.66-0.54l4.4-15.36q0.3-1.03-0.77-1.08l-146.35-6.35a0.45 0.45 0 0 0-0.47 0.43l-0.78 21.91q-0.02 0.55 0.53 0.6l40.26 4.27a1.49 1.49 0 0 1 0.87 2.55q-0.96 0.93-2.86 1.14-19.35 2.16-38.78 3.86-0.54 0.05-0.64 0.58-0.22 1.24 0.14 2.52a0.66 0.66 0 0 1 0 0.42q-0.69 2.15 0.87 2.62 3.98 1.21 7.71 2.37" stroke="#90857a" vector-effect="non-scaling-stroke"/> <path d="m555.41 658.05c-14.11-1.21-28.05-2.03-41.75-3.53q-4.4-0.48-8.78 0.07c-19.97 2.49-40.33 3.69-60.39 5.24" stroke="#f3a981" vector-effect="non-scaling-stroke"/> <path d="m380.47 620.11a0.63 0.63 0 0 0-0.6376-0.6223l-2.4998 0.0306a0.63 0.63 0 0 0-0.6223 0.6376l0.0489 3.9997a0.63 0.63 0 0 0 0.6376 0.6223l2.4998-0.0306a0.63 0.63 0 0 0 0.6223-0.6376l-0.0489-3.9997" stroke="#908a8a" vector-effect="non-scaling-stroke"/> <path d="m368.86 619.81c-0.66 0.38-0.68 2.53-1.48 3.52q-0.5 0.62 0.29 0.76l1.05 0.18q0.59 0.1 0.62-0.5l0.16-3.58a0.42 0.42 0 0 0-0.64-0.38" stroke="#908a8a" vector-effect="non-scaling-stroke"/> <path d="m642.94 624.39q0.93 0.28 1.89-0.24 0.49-0.27 0.46-0.82l-0.15-2.43q-0.03-0.67-0.71-0.69-3.27-0.07-3.34 3.09-0.01 0.49 0.27 0.74 0.41 0.36 1.09 0.3 0.25-0.02 0.49 0.05" stroke="#908a8a" vector-effect="non-scaling-stroke"/> <path d="m395.59 622.9a1.62 1.26-2 0 0-1.663-1.2027 1.62 1.26-2 0 0-1.575 1.3157 1.62 1.26-2 0 0 1.663 1.2027 1.62 1.26-2 0 0 1.575-1.3157" stroke="#908a8a" vector-effect="non-scaling-stroke"/> <path d="m625.06 625.64-0.21-2.99a0.5 0.5 0 0 0-0.53-0.46l-1.02 0.07a1.89 1.18 86.1 0 0-1.04 1.96l0.01 0.22a1.89 1.18 86.1 0 0 1.31 1.81l1.01-0.07a0.5 0.5 0 0 0 0.47-0.54" stroke="#90857a" vector-effect="non-scaling-stroke"/> <path d="m370.78 633.51a1.65 1.49 35.8 0 0-0.4667-2.1737 1.65 1.49 35.8 0 0-2.2099 0.2433 1.65 1.49 35.8 0 0 0.4667 2.1737 1.65 1.49 35.8 0 0 2.2099-0.2433" stroke="#908a8a" vector-effect="non-scaling-stroke"/> <path d="m644.94 630.98-2.44 0.04a0.78 0.78 0 0 0-0.77 0.79l0.02 1.15a1.83 1.53 89.1 0 0 1.56 1.81l0.94-0.02a1.83 1.53 89.1 0 0 1.5-1.85l-0.02-1.15a0.78 0.78 0 0 0-0.79-0.77" stroke="#908a8a" vector-effect="non-scaling-stroke"/> <path d="m617.73 634.47a1.93 1.15 12 0 0-1.6487-1.5262 1.93 1.15 12 0 0-2.1269 0.7236 1.93 1.15 12 0 0 1.6487 1.5262 1.93 1.15 12 0 0 2.1269-0.7236" stroke="#908a8a" vector-effect="non-scaling-stroke"/> <path d="m415.26 640.15q-0.05 0.94 0.71 0.37l0.65-0.49q0.77-0.57-0.17-0.76-1.13-0.22-1.19 0.88" stroke="#8e5721" vector-effect="non-scaling-stroke"/> <path d="m614.81 640.94q-0.3-0.4-0.74 0.08a0.55 0.54 30 0 0 0.24 0.88l0.29 0.09a0.48 0.48 0 0 0 0.61-0.33q0.19-0.72-0.4-0.72" stroke="#90857a" vector-effect="non-scaling-stroke"/> <path d="m363.96 645.83a4.54 3.53 0.6 0 0-4.5028-3.5773 4.54 3.53 0.6 0 0-4.5768 3.4823 4.54 3.53 0.6 0 0 4.5028 3.5773 4.54 3.53 0.6 0 0 4.5768-3.4823" stroke="#908a8a" vector-effect="non-scaling-stroke"/> <path d="m419.96 664.98c-22.12 6.63-14.69 40.08 7.28 37.76 14.36-1.51 23.14-17.2 14.6-29.92q-0.31-0.46-0.84-0.29l-5.48 1.73a0.68 0.66-13.9 0 0-0.46 0.75c1 6.27-1.89 12.71-8.08 14.67-16.13 5.11-20.26-22.01-0.5-21.18q0.52 0.02 0.52-0.5v-3.72q0-0.42-0.42-0.36c-2.19 0.33-4.69 0.47-6.62 1.06" stroke="#908a8a" vector-effect="non-scaling-stroke"/> <path d="m564.81 691.58c-19.3 4.36-15.79-29.51 4.6-19.14q0.54 0.27 0.82-0.26l2.12-4.08a1.26 1.26 0 0 0-0.8-1.8q-15.27-4.04-23.31 6.16c-9.79 12.41 1.43 30.98 16.17 30.21 15.17-0.8 23.61-17.38 15.25-30.11q-0.35-0.54-0.63 0.04c-3.02 6.3-6.02 17.13-14.22 18.98" stroke="#908a8a" vector-effect="non-scaling-stroke"/> <path d="m426.82 679.5a3.59 3.59 0 0 0-3.59-3.59 3.59 3.59 0 0 0-3.59 3.59 3.59 3.59 0 0 0 3.59 3.59 3.59 3.59 0 0 0 3.59-3.59" stroke="#908a8a" vector-effect="non-scaling-stroke"/> <path d="m564.87 681.16a3.15 3.15 0 0 0-3.15-3.15 3.15 3.15 0 0 0-3.15 3.15 3.15 3.15 0 0 0 3.15 3.15 3.15 3.15 0 0 0 3.15-3.15" stroke="#908a8a" vector-effect="non-scaling-stroke"/> <path d="m328.62 697.4 14.46 13.2q0.43 0.39 1.01 0.39c75.93 0.05 151.85-0.2 227.78 0.26a0.58 0.56 27.7 0 0 0.31-0.09q0.28-0.16 0.58-0.16 51.47-0.02 103.02 0.01a1.14 1.11-65.2 0 0 0.74-0.28l15.51-13.67q0.64-0.56-0.21-0.56h-104.08a1.03 1.02-74.4 0 0-0.88 0.5c-10.87 17.9-34.88 17.62-45.96-0.17q-0.22-0.35-0.64-0.35l-90.52 0.03a0.69 0.68-74.6 0 0-0.59 0.34c-10.28 17.59-35.18 17.91-45.89 0.44-0.9-1.47-1.86-0.79-3.13-0.79q-35.89 0-71.16 0-1.33 0-0.35 0.9" stroke="#85391d" vector-effect="non-scaling-stroke"/> <path d="m363.36 725.9q10.67 7.29 21.46 12.97 1.95 1.02 4.2 1.02c91.82-0.38 145.23-1.04 209.72 1.61q3.83 0.16 7.64 0.67 0.44 0.06 0.69 0.3 0.29 0.29 0.39 0.67a0.8 0.79 75.6 0 1-0.58 0.99q-2.56 0.6-5.38 0.68-26.01 0.76-52.04 1-0.53 0.01-0.81 0.45c-2.71 4.27-2.82 7.36-8.96 7.4-41.96 0.32-83.86 0.08-125.81-0.02a0.15 0.14 54.3 0 0-0.04 0.28c37.86 14.21 76.06 20.76 116.52 17.63 44.9-3.46 87.91-19.39 125.26-44.95q1.61-1.1-0.34-1.1h-291.8q-0.71 0-0.12 0.4" stroke="#85391d" vector-effect="non-scaling-stroke"/> <path d="m430.76 601.37 27.72 0.9q0.78 0.03 0.55-0.72l-17.83-56.81q-0.19-0.59-0.8-0.6l-31.74-0.52a0.35 0.35 0 0 0-0.33 0.47l19.86 55.41a2.83 2.82 81 0 0 2.57 1.87" stroke="#908a8a" vector-effect="non-scaling-stroke"/> <path d="m464.8 602.39a0.31 0.31 0 0 0 0.29 0.22l33.35 1.4a0.31 0.31 0 0 0 0.31-0.39l-15.99-58.46a0.31 0.31 0 0 0-0.29-0.23l-35.72-0.92a0.31 0.31 0 0 0-0.3 0.4l18.35 57.98" stroke="#908a8a" vector-effect="non-scaling-stroke"/> <path d="m433.79 594.99 9.8 0.33a0.54 0.54 0 0 0 0.56-0.63q-0.08-0.46-0.35-0.78-0.23-0.27-0.35-0.61l-14.54-42.13q-0.24-0.67-0.95-0.7l-9.98-0.45q-0.7-0.04-0.47 0.62l15.43 43.72q0.21 0.6 0.85 0.63" stroke="#702019" vector-effect="non-scaling-stroke"/> <path d="m437.55 550.1a0.27 0.27 0 0 0-0.3396-0.1746l-1.8091 0.5809a0.27 0.27 0 0 0-0.1745 0.3396l14.203 44.236a0.27 0.27 0 0 0 0.3396 0.1746l1.8091-0.5809a0.27 0.27 0 0 0 0.1745-0.3396l-14.203-44.236" stroke="#702019" vector-effect="non-scaling-stroke"/> <path d="m458.2 559.83-0.44 0.71q-0.29 0.48-0.09 1 6.34 16.74 11.05 34.02a1.09 1.08-8.3 0 0 1.09 0.8l13.12-0.5q0.65-0.02 0.44-0.63-0.12-0.38-0.47-0.66a1.27 1.24-79.2 0 1-0.45-0.68c-3.71-14.33-8.84-27.69-12.57-41.82q-0.12-0.46-0.59-0.48l-13.59-0.62q-0.97-0.04-0.69 0.89 1.13 3.71 3.18 6.99 0.3 0.48 0.01 0.98" stroke="#4f1516" vector-effect="non-scaling-stroke"/> <path d="m488.19 591.66a0.84 0.84 0 0 0 1.54-0.59c-2.22-12.94-6.81-26.12-10.09-38.93q-0.13-0.51-0.66-0.57l-2.72-0.32a0.79 0.79 0 0 0-0.85 1.01c3.02 10.17 6.32 20.23 8.88 30.39q1.18 4.71 3.9 9.01" stroke="#4f1516" vector-effect="non-scaling-stroke"/> <path d="m643.08 613.93 0.22 0.38a0.24 0.24 0 0 0 0.4 0.02q0.58-0.8 0.14-1.63a0.28 0.28 0 0 0-0.49-0.03q-0.1 0.15-0.14 0.32a1.09 0.17-73.5 0 0-0.13 0.94" stroke="#fccc96" vector-effect="non-scaling-stroke"/> <path d="m513.02 762.96a4.95 4.95 0 0 0-4.95-4.95 4.95 4.95 0 0 0-4.95 4.95 4.95 4.95 0 0 0 4.95 4.95 4.95 4.95 0 0 0 4.95-4.95" stroke="#f3ad92" vector-effect="non-scaling-stroke"/> </g> <path d="m0 0h1024v1024h-1024v-1024zm359.43 536.52c8.9-3.13 17.3-2.44 24.89 3.1q0.41 0.3 0.31-0.2c-2.23-10.83-2.11-20.67-3.26-31.25q14.56 39.67 28.63 79.41c3.88 10.96 5.89 23.25 18.05 27.7q0.55 0.2 0.54 0.79l-0.47 21.31q-0.02 0.57-0.59 0.54-0.88-0.05-1.03-0.99-0.41-2.42-1.18-4.03-0.29-0.6-0.95-0.6l-19.71 0.08a0.41 0.41 0 0 1-0.41-0.41l-0.07-16.45q0-0.64-0.65-0.64l-20.31-0.01q-0.9 0-0.92-0.9l-0.18-12.72q-0.01-0.6-0.61-0.62l-5.79-0.19a0.48 0.48 0 0 1-0.47-0.48v-10.54q0-0.59-0.58-0.59l-10.55 0.02q-0.61 0-0.61 0.62-0.03 14.39-0.01 28.78 0 2.27 0.35 4.59 0.08 0.57-0.47 0.4c-1.11-0.35-1.92-0.77-3.06-0.75q-10.23 0.15-20.51-0.4a0.53 0.53 0 0 1-0.5-0.51l-0.21-4.79q-0.02-0.54-0.55-0.57l-6.16-0.39q-0.64-0.04-0.64-0.68v-13.15q0-0.75-0.75-0.75h-7.52q-0.53 0-0.45-0.52l0.49-3.04a0.6 0.6 0 0 0-0.59-0.69h-2.64q-0.71 0-0.71-0.71l-0.12-18.19q0-1.1-1.11-1.1h-5.85q-0.75 0-0.76-0.75l-0.32-13.19q-0.02-0.59-0.61-0.6l-17.24-0.1q-0.57-0.01-0.57 0.57v22.15a0.59 0.58-90 0 1-0.58 0.59l-35.1 0.28q-0.48 0-0.49 0.48l-0.3 9.78q-0.01 0.47-0.49 0.47l-20.48 0.23q-0.52 0-0.54 0.53l-0.35 8.56q-0.01 0.37-0.39 0.39-20.31 0.76-40.56 2.46c-1.08 0.09-3.5 0.02-4.65 0.67a0.91 0.91 0 0 0 0.39 1.7q13.39 0.78 25.72 1.76 3.77 0.31 5.23 3.54a1.32 1.31-46.2 0 1 0.02 1.01q-1.53 3.82-5.89 4.26c-18.8 1.89-37.97 1.98-56.85 3.07q-0.85 0.05-1.25 0.44-0.65 0.63-0.28 1.54a1.39 1.36-8 0 0 1.15 0.85c62.01 5.42 122.87 3.85 196.07 5.84q0.06 0.01 0.06 0.05 0 0.03 0 0.07 0.01 0.11-0.1 0.12-2.29 0.25-4.59 0.29-59.35 0.86-118.7 1.65-11.76 0.16-19.98 0.51c-15.37 0.65-31.1 1.08-46.35 3.22a0.85 0.85 0 0 0-0.52 1.4q0.48 0.56 1.57 0.66c26.55 2.54 53.94 3.09 80.16 3.33q0.41 0.01 0.61 0.27 0.34 0.45-0.22 0.5-25.92 2.45-51.81 5.21-1 0.1-1.1 0.25a1.45 1.45 0 0 0 1.11 2.21q5.35 0.42 10.23 0.43 28.84 0.02 57.68 0.3c2.82 0.03 10.08-0.34 10.25 4.27 0.1 2.56-2.46 3.25-4.71 3.41q-25.36 1.79-50.32 5.65a1.59 1.59 0 0 0-1.27 2.05q0.1 0.34 1.14 0.53 4.21 0.79 8.47 0.94c18.36 0.65 36.13-0.2 54.75-2.48q73.31-8.94 146.84-15.96 0.42-0.04 0.42 0.39v2.76q0 0.69-0.69 0.73-11.05 0.69-19.25 7.68l-99.93 10.15-23.05 2.28q-0.66 0.06-0.31 0.62 0.8 1.26 2.16 3.04c48.68 63.72 121.45 106.77 202.02 112.86 98.33 7.42 190.34-37.13 248.62-116.15q36.42 3.54 73.6 6.99c14.91 1.38 29.08-5.82 29.56-22.39a0.64 0.63 0.5 0 1 0.64-0.62c6.87-0.01 12.66 0.89 20.6-0.81 13.65-2.94 24.78-12.64 27.04-26.53 2.92-17.95-11.12-32.68-28.27-34.61q-10.46-1.18-21.49 1.99a0.77 0.76-25.1 0 1-0.84-0.3c-6.48-9.59-14.73-8.89-24.99-6.76a0.57 0.57 0 0 1-0.68-0.45c-1.71-9.41-4.24-14.28-12.11-19.83l-5.78-14.49q-0.19-0.46-0.1-0.96 19.4-105.42-30.38-197.97c-49.23-91.5-148.03-153.54-252.6-153.42q-72.09 0.08-135.46 33.61c-90.06 47.67-150.7 145.15-154.79 246.83q-1.65 41 7.48 81.2 0.13 0.56 0.61 0.24 14.84-9.79 31.19-2.16a0.69 0.69 0 0 0 0.98-0.56c4.42-43.02 57.68-61.64 84.96-25.71q0.32 0.41 0.78 0.18 5.9-2.97 12.91-3.72z" fill="#fef5de"/> <path d="m799.63 573.45q-8.56-2.91-17.33-2.67c-4.76 0.14-10.31 2.1-15.79 2.45q-0.79 0.05-0.77-0.75c0.15-5.03-0.07-10.56-2.79-14.86q-7.54-11.95-23.02-6.94a0.36 0.36 0 0 1-0.45-0.22c-6.48-17.06-20.93-28.32-39.05-29.29-14.32-0.77-27.8 5.01-36.19 16.92l-2.83 3.62a0.63 0.62-56.7 0 1-0.8 0.17c-4.16-2.3-8.02-2.17-12.6-2.78q11.55-21.14 33.56-27.67 33.14-7.72 54.83 15.15 1.65 1.74 3.72 2.63 17.18 7.34 33.47 17.26a0.32 0.31-69.5 0 0 0.47-0.22c28.59-160.55-95.75-315.94-260.05-318.14q-82.12-1.1-149.58 43.17c-88.16 57.86-136.67 166.79-119.58 271.28q0.08 0.52 0.52 0.22 9.19-6.22 19.04-11.36c6.51-3.39 10.88-10.02 17.05-13.79q26.73-16.31 56.12-1.64 12.92 7.42 21.85 20.53-7.01 0.75-12.91 3.72-0.46 0.23-0.78-0.18c-27.28-35.93-80.54-17.31-84.96 25.71a0.69 0.69 0 0 1-0.98 0.56q-16.35-7.63-31.19 2.16-0.48 0.32-0.61-0.24-9.13-40.2-7.48-81.2c4.09-101.68 64.73-199.16 154.79-246.83q63.37-33.53 135.46-33.61c104.57-0.12 203.37 61.92 252.6 153.42q49.78 92.55 30.38 197.97-0.09 0.5 0.1 0.96l5.78 14.49z" fill="#211515"/> <path d="m681.57 511.43q-0.59-39.86-17.69-75.59c-30.31-63.34-93.11-102.35-163.68-98.39-66.98 3.76-123.28 46.83-147.61 108.94q-5.96-2.61-12.2-5c-11.11-4.25-19 12.42-7.97 17.46 5.73 2.61 12.53 6.38 18.76 7.18q4.52 0.57 8.38 3.31 0.3 0.22-0.05 0.35c-11.14 4.08-22.87 9.19-34.46 11.66q-0.36-2.02-1.77-2.14-1.25-0.11-1.53 0.9-0.25 0.86 0.61 2.15c-20.31 5.85-36.96 8.09-55.73 11.18q-3.17 0.52 0.03 0.71c4.2 0.24 9.06 0.58 13.78 0.17q1.46-0.12 2.37 0.6 0.52 3.23 3.78 0.32 0.35-0.78 1.34-0.87 26.76-2.49 52.62-10.48l-2.97 32.1q-29.39-14.67-56.12 1.64c-6.17 3.77-10.54 10.4-17.05 13.79q-9.85 5.14-19.04 11.36-0.44 0.3-0.52-0.22c-17.09-104.49 31.42-213.42 119.58-271.28q67.46-44.27 149.58-43.17c164.3 2.2 288.64 157.59 260.05 318.14a0.32 0.31-69.5 0 1-0.47 0.22q-16.29-9.92-33.47-17.26-2.07-0.89-3.72-2.63-21.69-22.87-54.83-15.15zm-207.06-239.69a0.31 0.31 0 0 0-0.18 0.56l23.37 17.35a0.31 0.31 0 0 1 0.11 0.34l-8.24 27.41a0.31 0.31 0 0 0 0.49 0.34l21.69-17.2a0.31 0.31 0 0 1 0.38 0l21.75 16.6a0.31 0.31 0 0 0 0.49-0.33l-8.33-27.15a0.31 0.31 0 0 1 0.11-0.34l22.91-17.28a0.31 0.31 0 0 0-0.19-0.56l-28.71 0.05a0.31 0.31 0 0 1-0.3-0.21l-8.53-26.23a0.31 0.31 0 0 0-0.59 0.01l-7.83 26.18a0.31 0.31 0 0 1-0.3 0.22l-28.1 0.24zm65.45-14.49q0.13-0.17 0.01-0.34l-0.27-0.36a0.59 0.52-83.4 0 0-0.82 0.74q0.49 0.75 1.08-0.04zm-123.17 18.59a0.32 0.32 0 0 1-0.26 0.3l-16.26 2.85a0.32 0.32 0 0 0-0.08 0.6l15.59 7.4a0.32 0.32 0 0 1 0.18 0.3l-0.85 18.84a0.32 0.32 0 0 0 0.57 0.22l10.94-13.45a0.32 0.32 0 0 1 0.37-0.1l16.53 7.07a0.32 0.32 0 0 0 0.4-0.46l-9.66-15.46a0.32 0.32 0 0 1 0.03-0.38l11.68-14.01a0.32 0.32 0 0 0-0.32-0.51l-17.57 4.26a0.32 0.32 0 0 1-0.35-0.15l-9.45-15.39a0.32 0.32 0 0 0-0.59 0.15l-0.9 17.92zm189.42 28.73a0.34 0.34 0 0 1 0.4 0.1l11.62 14.68a0.34 0.34 0 0 0 0.6-0.24l-1.4-18.21a0.34 0.34 0 0 1 0.2-0.34l15.65-6.86a0.34 0.34 0 0 0-0.05-0.64l-18.28-4.96a0.34 0.34 0 0 1-0.25-0.28l-2.43-18.17a0.34 0.34 0 0 0-0.64-0.11l-7.79 15.41a0.34 0.34 0 0 1-0.4 0.17l-15.87-4.73a0.34 0.34 0 0 0-0.37 0.54l11.12 13.97a0.34 0.34 0 0 1 0.03 0.38l-8.79 15.65a0.34 0.34 0 0 0 0.42 0.48l16.23-6.84zm-56.38-12.73a2 2 0 0 0-2-2 2 2 0 0 0-2 2 2 2 0 0 0 2 2 2 2 0 0 0 2-2zm-72.288 1.3417a2.2 1.97 9.2 0 0-1.8567-2.2964 2.2 1.97 9.2 0 0-2.4867 1.593 2.2 1.97 9.2 0 0 1.8567 2.2964 2.2 1.97 9.2 0 0 2.4867-1.593zm-88.702 2.8783a2.07 2.07 0 0 0-2.07-2.07 2.07 2.07 0 0 0-2.07 2.07 2.07 2.07 0 0 0 2.07 2.07 2.07 2.07 0 0 0 2.07-2.07zm-14.25 32.76 7.19 2.88a0.58 0.58 0 0 0 0.69-0.88l-4.43-5.98a2.17 2.16-44 0 1 0.05-2.63l5.23-6.62a0.55 0.55 0 0 0-0.55-0.88q-3.28 0.65-6.6 1.94c-3.51 1.36-6.42-4.93-7.87-7.33a0.49 0.48-60.5 0 0-0.9 0.25l0.04 8.32q0.01 1.12-1.09 1.32l-7.29 1.35a0.74 0.74 0 0 0-0.19 1.39l7.92 3.85q0.47 0.23 0.42 0.75l-0.79 7.77q-0.33 3.28 1.75 0.73l4.72-5.79q0.69-0.85 1.7-0.44zm312.1-3.7a2.44 2.44 0 0 0-2.44-2.44 2.44 2.44 0 0 0-2.44 2.44 2.44 2.44 0 0 0 2.44 2.44 2.44 2.44 0 0 0 2.44-2.44zm-145.24-0.2a1.94 1.94 0 0 0-1.94-1.94 1.94 1.94 0 0 0-1.94 1.94 1.94 1.94 0 0 0 1.94 1.94 1.94 1.94 0 0 0 1.94-1.94zm106.42 3.02a2.27 2.27 0 0 0-2.27-2.27 2.27 2.27 0 0 0-2.27 2.27 2.27 2.27 0 0 0 2.27 2.27 2.27 2.27 0 0 0 2.27-2.27zm-66.08 5.73a2.15 2.15 0 0 0-2.15-2.15 2.15 2.15 0 0 0-2.15 2.15 2.15 2.15 0 0 0 2.15 2.15 2.15 2.15 0 0 0 2.15-2.15zm-138.29 3.64a2.31 2.31 0 0 0-2.31-2.31 2.31 2.31 0 0 0-2.31 2.31 2.31 2.31 0 0 0 2.31 2.31 2.31 2.31 0 0 0 2.31-2.31zm-30.94 0.72a2 2 0 0 0-2-2 2 2 0 0 0-2 2 2 2 0 0 0 2 2 2 2 0 0 0 2-2zm-83.873-0.0924a2.49 2.25-9.3 0 0-2.8209-1.818 2.49 2.25-9.3 0 0-2.0937 2.6228 2.49 2.25-9.3 0 0 2.8209 1.818 2.49 2.25-9.3 0 0 2.0937-2.6228zm34.093 6.6524a2.42 2.42 0 0 0-2.42-2.42 2.42 2.42 0 0 0-2.42 2.42 2.42 2.42 0 0 0 2.42 2.42 2.42 2.42 0 0 0 2.42-2.42zm278.67 2.25a2.05 2.05 0 0 0-2.05-2.05 2.05 2.05 0 0 0-2.05 2.05 2.05 2.05 0 0 0 2.05 2.05 2.05 2.05 0 0 0 2.05-2.05zm-16.44 1.9a2.48 2.48 0 0 0-2.48-2.48 2.48 2.48 0 0 0-2.48 2.48 2.48 2.48 0 0 0 2.48 2.48 2.48 2.48 0 0 0 2.48-2.48zm-233.78 5.84a2.22 2.22 0 0 0-2.22-2.22 2.22 2.22 0 0 0-2.22 2.22 2.22 2.22 0 0 0 2.22 2.22 2.22 2.22 0 0 0 2.22-2.22zm289.65 5.16a2.29 2.29 0 0 0-2.29-2.29 2.29 2.29 0 0 0-2.29 2.29 2.29 2.29 0 0 0 2.29 2.29 2.29 2.29 0 0 0 2.29-2.29zm32.24 5.58a1.79 1.79 0 0 0-1.79-1.79 1.79 1.79 0 0 0-1.79 1.79 1.79 1.79 0 0 0 1.79 1.79 1.79 1.79 0 0 0 1.79-1.79zm-382.6 8.12a2.6 2.6 0 0 0-2.6-2.6 2.6 2.6 0 0 0-2.6 2.6 2.6 2.6 0 0 0 2.6 2.6 2.6 2.6 0 0 0 2.6-2.6zm37.66 16.96a2.67 2.67 0 0 0-2.67-2.67 2.67 2.67 0 0 0-2.67 2.67 2.67 2.67 0 0 0 2.67 2.67 2.67 2.67 0 0 0 2.67-2.67zm321.16-0.44a2.26 2.26 0 0 0-2.26-2.26 2.26 2.26 0 0 0-2.26 2.26 2.26 2.26 0 0 0 2.26 2.26 2.26 2.26 0 0 0 2.26-2.26zm-353.24 0.4752a1.23 1 60 0 0 0.251-1.5652 1.23 1 60 0 0-1.481-0.5652 1.23 1 60 0 0-0.251 1.5652 1.23 1 60 0 0 1.481 0.5652zm316.96 3.0748a2.7 2.7 0 0 0-2.7-2.7 2.7 2.7 0 0 0-2.7 2.7 2.7 2.7 0 0 0 2.7 2.7 2.7 2.7 0 0 0 2.7-2.7zm66.707 0.3684a0.97 0.81-12.6 0 0-1.1233-0.5789 0.97 0.81-12.6 0 0-0.7699 1.0021 0.97 0.81-12.6 0 0 1.1233 0.5789 0.97 0.81-12.6 0 0 0.7699-1.0021zm-427.38 2.5148a1.06 0.9 52.7 0 0 0.0736-1.3886 1.06 0.9 52.7 0 0-1.3582-0.2978 1.06 0.9 52.7 0 0-0.0736 1.3886 1.06 0.9 52.7 0 0 1.3582 0.2978zm-4.8623 26.387q-0.34 0.57-0.97 0.34l-16.77-6.24a0.4 0.4 0 0 0-0.47 0.6l11.39 17.06a1.33 1.31-46.3 0 1 0.02 1.43l-11.27 18.05q-0.74 1.18 0.56 0.68l18.3-7.1q0.5-0.2 0.79 0.25l11.33 17.3a0.5 0.5 0 0 0 0.92-0.27l-0.08-20.96a1.05 1.04 80.5 0 1 0.71-1.01l17.51-6.07q1.35-0.46 0.01-0.97l-19.74-7.43a0.82 0.81 9.1 0 1-0.52-0.71l-1.11-21.15a0.39 0.39 0 0 0-0.73-0.18l-9.88 16.38zm434.1 24.48a0.44 0.44 0 0 1 0.3 0.4l0.94 23.44a0.44 0.44 0 0 0 0.82 0.2l10.94-18.7a0.44 0.44 0 0 1 0.54-0.18l18.61 7.31a0.44 0.44 0 0 0 0.54-0.65l-12.77-20.11a0.44 0.44 0 0 1-0.01-0.46l11.72-19.47a0.44 0.44 0 0 0-0.55-0.63l-18.05 7.53a0.44 0.44 0 0 1-0.55-0.17l-10.28-16.87a0.44 0.44 0 0 0-0.82 0.22l-0.37 22.17a0.44 0.44 0 0 1-0.27 0.4l-20.28 8.11a0.44 0.44 0 0 0 0.03 0.82l19.51 6.64zm-367.49-24.87a2.63 2.63 0 0 0-2.63-2.63 2.63 2.63 0 0 0-2.63 2.63 2.63 2.63 0 0 0 2.63 2.63 2.63 2.63 0 0 0 2.63-2.63zm321.8 2.95a2.56 2.56 0 0 0-2.56-2.56 2.56 2.56 0 0 0-2.56 2.56 2.56 2.56 0 0 0 2.56 2.56 2.56 2.56 0 0 0 2.56-2.56zm-378.21 44.672a1.56 1.24 18.4 0 0-1.0888-1.669 1.56 1.24 18.4 0 0-1.8716 0.6842 1.56 1.24 18.4 0 0 1.0888 1.669 1.56 1.24 18.4 0 0 1.8716-0.6842zm447.68 26.628a3.91 3.91 0 0 0-3.91-3.91 3.91 3.91 0 0 0-3.91 3.91 3.91 3.91 0 0 0 3.91 3.91 3.91 3.91 0 0 0 3.91-3.91zm-428.57 1.7989a2.73 2.3-7.6 0 0-3.0102-1.9187 2.73 2.3-7.6 0 0-2.4018 2.6409 2.73 2.3-7.6 0 0 3.0102 1.9187 2.73 2.3-7.6 0 0 2.4018-2.6409zm392.97 3.3411a2.56 2.56 0 0 0-2.56-2.56 2.56 2.56 0 0 0-2.56 2.56 2.56 2.56 0 0 0 2.56 2.56 2.56 2.56 0 0 0 2.56-2.56z" fill="#e85c24"/> <path d="m474.51 271.74 28.1-0.24a0.31 0.31 0 0 0 0.3-0.22l7.83-26.18a0.31 0.31 0 0 1 0.59-0.01l8.53 26.23a0.31 0.31 0 0 0 0.3 0.21l28.71-0.05a0.31 0.31 0 0 1 0.19 0.56l-22.91 17.28a0.31 0.31 0 0 0-0.11 0.34l8.33 27.15a0.31 0.31 0 0 1-0.49 0.33l-21.75-16.6a0.31 0.31 0 0 0-0.38 0l-21.69 17.2a0.31 0.31 0 0 1-0.49-0.34l8.24-27.41a0.31 0.31 0 0 0-0.11-0.34l-23.37-17.35a0.31 0.31 0 0 1 0.18-0.56z" fill="#fefeff"/> <path d="m539.96 257.25q-0.59 0.79-1.08 0.04a0.59 0.52-83.4 0 1 0.82-0.74l0.27 0.36q0.12 0.17-0.01 0.34z" fill="#fa992d"/> <path d="m416.79 275.84 0.9-17.92a0.32 0.32 0 0 1 0.59-0.15l9.45 15.39a0.32 0.32 0 0 0 0.35 0.15l17.57-4.26a0.32 0.32 0 0 1 0.32 0.51l-11.68 14.01a0.32 0.32 0 0 0-0.03 0.38l9.66 15.46a0.32 0.32 0 0 1-0.4 0.46l-16.53-7.07a0.32 0.32 0 0 0-0.37 0.1l-10.94 13.45a0.32 0.32 0 0 1-0.57-0.22l0.85-18.84a0.32 0.32 0 0 0-0.18-0.3l-15.59-7.4a0.32 0.32 0 0 1 0.08-0.6l16.26-2.85a0.32 0.32 0 0 0 0.26-0.3z" fill="#fefeff"/> <path d="m606.21 304.57-16.23 6.84a0.34 0.34 0 0 1-0.42-0.48l8.79-15.65a0.34 0.34 0 0 0-0.03-0.38l-11.12-13.97a0.34 0.34 0 0 1 0.37-0.54l15.87 4.73a0.34 0.34 0 0 0 0.4-0.17l7.79-15.41a0.34 0.34 0 0 1 0.64 0.11l2.43 18.17a0.34 0.34 0 0 0 0.25 0.28l18.28 4.96a0.34 0.34 0 0 1 0.05 0.64l-15.65 6.86a0.34 0.34 0 0 0-0.2 0.34l1.4 18.21a0.34 0.34 0 0 1-0.6 0.24l-11.62-14.68a0.34 0.34 0 0 0-0.4-0.1z" fill="#fefeff"/> <circle cx="547.83" cy="291.84" r="2" fill="#fa992d"/> <ellipse transform="translate(475.37,292.83) rotate(9.2)" rx="2.2" ry="1.97" fill="#fa992d"/> <circle cx="386.77" cy="296.06" r="2.07" fill="#fefeff"/> <path d="m374.59 328.82q-1.01-0.41-1.7 0.44l-4.72 5.79q-2.08 2.55-1.75-0.73l0.79-7.77q0.05-0.52-0.42-0.75l-7.92-3.85a0.74 0.74 0 0 1 0.19-1.39l7.29-1.35q1.1-0.2 1.09-1.32l-0.04-8.32a0.49 0.48-60.5 0 1 0.9-0.25c1.45 2.4 4.36 8.69 7.87 7.33q3.32-1.29 6.6-1.94a0.55 0.55 0 0 1 0.55 0.88l-5.23 6.62a2.17 2.16-44 0 0-0.05 2.63l4.43 5.98a0.58 0.58 0 0 1-0.69 0.88l-7.19-2.88z" fill="#fefeff"/> <circle cx="684.25" cy="325.12" r="2.44" fill="#fefeff"/> <circle cx="539.51" cy="324.92" r="1.94" fill="#fefeff"/> <circle cx="645.6" cy="327.94" r="2.27" fill="#fa992d"/> <circle cx="579.64" cy="333.67" r="2.15" fill="#fa992d"/> <circle cx="441.19" cy="337.31" r="2.31" fill="#fefeff"/> <circle cx="410.56" cy="338.03" r="2" fill="#fef5de"/> <ellipse transform="translate(326.23,338.34) rotate(-9.3)" rx="2.49" ry="2.25" fill="#fa992d"/> <path d="m681.57 511.43q-22.01 6.53-33.56 27.67-10.33 1.45-17.82 9.09-1.31 1.33-3.92 1.88c27.62-87.46-42.23-174.95-133.93-162.77-41.62 5.53-75.14 31.95-93.39 69.65l-1.54 0.77q-7.85 1.3-15.51 4.29a0.77 0.76 58.3 0 1-0.86-0.21c-7.59-8.84-18.36-11.24-28.45-15.41 24.33-62.11 80.63-105.18 147.61-108.94 70.57-3.96 133.37 35.05 163.68 98.39q17.1 35.73 17.69 75.59z" fill="#fa992d"/> <circle cx="360.36" cy="344.59" r="2.42" fill="#fefeff"/> <circle cx="639.4" cy="346.84" r="2.05" fill="#fa992d"/> <circle cx="622.53" cy="348.74" r="2.48" fill="#fefeff"/> <circle cx="389.01" cy="354.58" r="2.22" fill="#fa992d"/> <circle cx="678.59" cy="359.74" r="2.29" fill="#fefeff"/> <circle cx="711.33" cy="365.32" r="1.79" fill="#fefeff"/> <circle cx="327.92" cy="373.44" r="2.6" fill="#fa992d"/> <path d="m626.27 550.07q-1.74 2.18-4.86 2.4-10.08 0.71-17.8 4.81-0.43 0.23-0.9 0.06l-1.78-0.68c2.41-3.02 6.53-8.11 6.07-12.14-0.81-6.96-5.77-8.59-12.31-8.99q-7.53-0.47-15-0.58-1.31-0.02-0.84-1.23 4.77-12.37 9.02-25.2 1.23-3.72 0.65-6.14-1.13-4.7-6.08-6.3-2.99-3.6-7.61-5.41c-1.67-0.66-3.64-0.53-5.49-0.77q2.71-3.24 6.15-4.64c6.8-2.77 11.92 3.17 9.92 9.73q-0.28 0.91 0.82 1.51a0.68 0.68 0 0 0 0.93-0.28q2.2-4.3 0.47-9.26c-4.86-13.97-18.23-5.15-26.13 1.21q-1.47-2.26-4.8-3.11 7.2-5.05 10.42-12.97a0.55 0.54-10.6 0 0-0.88-0.6q-5.83 5.48-12.43 10-0.12 0.07-0.25 0.03t-0.27-0.09a0.16 0.15-54.1 0 1-0.04-0.27c7.08-5.46 12.04-11.89 13.96-20.78a1.42 1.4-61.8 0 0-0.37-1.27q-1.43-1.45-3.05 0.42-6.03 6.93-11.42 14.43a0.24 0.24 0 0 1-0.42-0.22c1.91-5.5 2.81-17.73-6.66-16.74-8.59 0.89-16.87 12.95-21.15 19.78q-0.2 0.33-0.57 0.2l-12.84-4.6a0.58 0.58 0 0 1-0.37-0.66c0.35-1.75 4.67-14.39 8.26-10.1q3.44 4.1 6.05 9.1a0.77 0.77 0 0 0 1.15 0.25q0.62-0.48 0.18-1.61c-1.44-3.63-5.94-15.38-11.42-13.29-6.27 2.4-7.25 8.35-7.53 14.55q-0.02 0.44-0.46 0.46l-3.66 0.14a0.58 0.58 0 0 1-0.6-0.51c-1.33-10.48-8.8-11.74-17.6-10.99q-0.54 0.05-0.66-0.48c-1.57-6.79-2.95-13.77-9.35-17.82q-6.63-4.19-15.06-0.6l-60.71 16.13c18.25-37.7 51.77-64.12 93.39-69.65 91.7-12.18 161.55 75.31 133.93 162.77z" fill="#fefeff"/> <circle cx="365.51" cy="390.4" r="2.67" fill="#fa992d"/> <circle cx="687.08" cy="389.96" r="2.26" fill="#fa992d"/> <ellipse transform="translate(335.49 389.37) rotate(60)" rx="1.23" ry="1" fill="#fa992d"/> <circle cx="650.36" cy="393.51" r="2.7" fill="#fefeff"/> <ellipse transform="translate(718.82,394.09) rotate(-12.6)" rx=".97" ry=".81" fill="#fa992d"/> <ellipse transform="translate(291.74,395.55) rotate(52.7)" rx="1.06" ry=".9" fill="#fefeff"/> <path d="m287.52 422.78 9.88-16.38a0.39 0.39 0 0 1 0.73 0.18l1.11 21.15a0.82 0.81 9.1 0 0 0.52 0.71l19.74 7.43q1.34 0.51-0.01 0.97l-17.51 6.07a1.05 1.04 80.5 0 0-0.71 1.01l0.08 20.96a0.5 0.5 0 0 1-0.92 0.27l-11.33-17.3q-0.29-0.45-0.79-0.25l-18.3 7.1q-1.3 0.5-0.56-0.68l11.27-18.05a1.33 1.31-46.3 0 0-0.02-1.43l-11.39-17.06a0.4 0.4 0 0 1 0.47-0.6l16.77 6.24q0.63 0.23 0.97-0.34z" fill="#fefeff"/> <path d="m721.62 447.26-19.51-6.64a0.44 0.44 0 0 1-0.03-0.82l20.28-8.11a0.44 0.44 0 0 0 0.27-0.4l0.37-22.17a0.44 0.44 0 0 1 0.82-0.22l10.28 16.87a0.44 0.44 0 0 0 0.55 0.17l18.05-7.53a0.44 0.44 0 0 1 0.55 0.63l-11.72 19.47a0.44 0.44 0 0 0 0.01 0.46l12.77 20.11a0.44 0.44 0 0 1-0.54 0.65l-18.61-7.31a0.44 0.44 0 0 0-0.54 0.18l-10.94 18.7a0.44 0.44 0 0 1-0.82-0.2l-0.94-23.44a0.44 0.44 0 0 0-0.3-0.4z" fill="#fefeff"/> <circle cx="351.5" cy="422.39" r="2.63" fill="#fefeff"/> <circle cx="673.37" cy="425.34" r="2.56" fill="#fa992d"/> <path d="m556.7 485.06-5.36-2.77a1.4 1.36-37.6 0 0-0.95-0.11q-2.51 0.61-4.05 2.7-0.25 0.34 0.14 0.49l12.36 4.67q0.51 0.2 0.97-0.09 1.02-0.62 1.69-1.78c7.9-6.36 21.27-15.18 26.13-1.21q1.73 4.96-0.47 9.26a0.68 0.68 0 0 1-0.93 0.28q-1.1-0.6-0.82-1.51c2-6.56-3.12-12.5-9.92-9.73q-3.44 1.4-6.15 4.64l-2.72 1.68q-0.48 0.29 0.07 0.43l15.75 4.07q4.95 1.6 6.08 6.3 0.58 2.42-0.65 6.14-4.25 12.83-9.02 25.2-0.47 1.21 0.84 1.23 7.47 0.11 15 0.58c6.54 0.4 11.5 2.03 12.31 8.99 0.46 4.03-3.66 9.12-6.07 12.14q-2.18 2.63-2.59 3.66-7.94 19.79-15.38 39.97a0.57 0.57 0 0 0 0.62 0.76c5.48-0.86 8.76 4.51 11.62 9.76q1.81 3.32 1.09 5.48-3.85 11.46-7.12 23.26-0.15 0.54 0.42 0.51 7.45-0.48 14.89-0.91 0.31-0.02 0.5 0.11 0.2 0.15 0.29 0.37 0.19 0.44-0.28 0.54l-4.11 0.82a0.45 0.45 0 0 0 0.08 0.9l6.99 0.15a0.85 0.84 90 0 0 0.86-0.87l-0.23-12.43a1.19 1.19 0 0 1 1.18-1.21l7.96-0.11q0.57 0 0.57-0.57l-0.06-35.73q0-0.64 0.65-0.64l4.73 0.06a0.84 0.84 0 0 0 0.85-0.83l0.13-14.24a0.33 0.32-89.1 0 1 0.32-0.32l18.62 0.04q1 2.46 0.7 5.46a1.21 1.21 0 0 0 1.2 1.34l17.71 0.02a0.86 0.84-12.6 0 1 0.77 0.48l2.37 5.07q0.27 0.56 0.88 0.71l4.14 0.97a2.57 2.56 6.3 0 1 1.98 2.47l0.31 26.06a0.57 0.57 0 0 0 0.75 0.53l0.32-0.1a0.51 0.51 0 0 0 0.34-0.48v-31.22q0-0.49 0.5-0.51l9.32-0.32q0.48-0.02 0.47-0.49l-0.13-9.26q-0.01-0.67 0.66-0.67h8.06q0.64 0 0.65 0.63l0.59 30.06q0.01 0.57 0.58 0.57l1.94-0.03q0.66-0.01 0.68-0.67l0.54-13.63q0.03-0.68 0.71-0.68h1.92q0.6 0 0.31 0.53-1.26 2.34-0.03 4.72a0.56 0.55 33 0 0 1.05-0.22l0.27-4.68a0.71 0.68 74.8 0 1 0.29-0.53l0.66-0.44a1.01 1 76 0 0 0.43-0.72q0.45-3.71 0.24-7.43-0.02-0.46 0.43-0.46l12.13-0.06q0.73 0 0.73-0.73v-1.98q0-0.75 0.75-0.75h16.32a0.58 0.57-0 0 1 0.58 0.57l0.14 12.7a0.48 0.48 0 0 0 0.48 0.47l27.19 0.04q1 0 1.06-0.99l0.31-5.09q0.03-0.45 0.48-0.45h12.94a0.75 0.75 0 0 1 0.75 0.75v7.49q0 0.51 0.49 0.67 4.26 1.3 7.93 3.79c4.1 2.78 12.54 1.91 13.39 6.24a1.18 1.16 13.6 0 0 0.46 0.74q1.69 1.25 2.98 1.33 13.78 0.76 27.49 2.34 0.93 0.11 1.41 0.51a0.86 0.86 0 0 1-0.5 1.51q-15.11 1.02-30.16 1.84-2.38 0.13-4.2 2.97a1.3 1.29-32.4 0 0-0.2 0.87c0.69 5.7 8.41 5.19 13.98 5.45q23.72 1.14 47.43 2.47 2.43 0.13 2.28 1.85a0.98 0.98 0 0 1-0.89 0.89q-38.33 3.28-76.08 4.16c-31.76 0.75-77.47 0.45-120.95 1.68a0.28 0.26-73.9 0 0-0.23 0.14q-0.2 0.35 0.12 0.36c45.25 0.88 90.5 1.21 135.75 1.95q18.3 0.29 50.44 3.11c0.91 0.08 2.35 0.65 2.97 1.18a0.93 0.93 0 0 1-0.53 1.64c-25.84 1.84-54.14 2.16-77.63 3.03q-0.19 0-0.31 0.17-0.22 0.32 0.17 0.36 21.35 2.27 42.72 4.6 4.08 0.45 8.32 1.32 0.58 0.12 0.25 0.62-1.15 1.72-2.97 1.72-32.5-0.03-64.99 0.05c-3.81 0.01-8.72 1.33-8.14 6.11a0.91 0.9-81.4 0 0 0.52 0.72q2.24 1.05 2.93 1.1 23.4 1.7 46.56 5.38c0.73 0.12 2.04 0.7 2.53 1.07a1.07 1.07 0 0 1-0.48 1.91q-3.84 0.63-6.86 0.67c-17.52 0.26-34.84 0.09-52.48-2.22q-43.68-5.72-87.52-10.08l-68.28-6.8q-0.52-0.06-0.65 0.44l-2.39 8.6q-1.44 2.04-0.28 3.99a2.49 2.47-13.8 0 0 2.03 1.22q15.38 0.67 31 1.59 1.77 0.11 2.86 0.99a0.43 0.42-28.2 0 1-0.23 0.75q-15.37 1.44-30.81 0.93-1.19-0.04-0.65 1.02 2.39 4.64 2.91 9.83 0.05 0.52 0.58 0.52 55.93-0.1 111.85-0.02c1.7 0 2.25 0.88 3.83-0.74q3.55-3.65 5.11-6.54l24.69 2.53c-58.28 79.02-150.29 123.57-248.62 116.15-80.57-6.09-153.34-49.14-202.02-112.86q-1.36-1.78-2.16-3.04-0.35-0.56 0.31-0.62l23.05-2.28 5.39 6.71a2.33 2.32 70.5 0 0 1.81 0.87l84.44-0.24q0.51 0 0.59-0.52 1.42-9.59 7.7-16.97 8.2-6.99 19.25-7.68 0.69-0.04 0.69-0.73v-2.76q0-0.43-0.42-0.39-73.53 7.02-146.84 15.96c-18.62 2.28-36.39 3.13-54.75 2.48q-4.26-0.15-8.47-0.94-1.04-0.19-1.14-0.53a1.59 1.59 0 0 1 1.27-2.05q24.96-3.86 50.32-5.65c2.25-0.16 4.81-0.85 4.71-3.41-0.17-4.61-7.43-4.24-10.25-4.27q-28.84-0.28-57.68-0.3-4.88-0.01-10.23-0.43a1.45 1.45 0 0 1-1.11-2.21q0.1-0.15 1.1-0.25 25.89-2.76 51.81-5.21 0.56-0.05 0.22-0.5-0.2-0.26-0.61-0.27c-26.22-0.24-53.61-0.79-80.16-3.33q-1.09-0.1-1.57-0.66a0.85 0.85 0 0 1 0.52-1.4c15.25-2.14 30.98-2.57 46.35-3.22q8.22-0.35 19.98-0.51 59.35-0.79 118.7-1.65 2.3-0.04 4.59-0.29 0.11-0.01 0.1-0.12 0-0.04 0-0.07 0-0.04-0.06-0.05c-73.2-1.99-134.06-0.42-196.07-5.84a1.39 1.36-8 0 1-1.15-0.85q-0.37-0.91 0.28-1.54 0.4-0.39 1.25-0.44c18.88-1.09 38.05-1.18 56.85-3.07q4.36-0.44 5.89-4.26a1.32 1.31-46.2 0 0-0.02-1.01q-1.46-3.23-5.23-3.54-12.33-0.98-25.72-1.76a0.91 0.91 0 0 1-0.39-1.7c1.15-0.65 3.57-0.58 4.65-0.67q20.25-1.7 40.56-2.46 0.38-0.02 0.39-0.39l0.35-8.56q0.02-0.53 0.54-0.53l20.48-0.23q0.48 0 0.49-0.47l0.3-9.78q0.01-0.48 0.49-0.48l35.1-0.28a0.59 0.58-90 0 0 0.58-0.59v-22.15q0-0.58 0.57-0.57l17.24 0.1q0.59 0.01 0.61 0.6l0.32 13.19q0.01 0.75 0.76 0.75h5.85q1.11 0 1.11 1.1l0.12 18.19q0 0.71 0.71 0.71h2.64a0.6 0.6 0 0 1 0.59 0.69l-0.49 3.04q-0.08 0.52 0.45 0.52h7.52q0.75 0 0.75 0.75v13.15q0 0.64 0.64 0.68l6.16 0.39q0.53 0.03 0.55 0.57l0.21 4.79a0.53 0.53 0 0 0 0.5 0.51q10.28 0.55 20.51 0.4c1.14-0.02 1.95 0.4 3.06 0.75q0.55 0.17 0.47-0.4-0.35-2.32-0.35-4.59-0.02-14.39 0.01-28.78 0-0.62 0.61-0.62l10.55-0.02q0.58 0 0.58 0.59v10.54a0.48 0.48 0 0 0 0.47 0.48l5.79 0.19q0.6 0.02 0.61 0.62l0.18 12.72q0.02 0.9 0.92 0.9l20.31 0.01q0.65 0 0.65 0.64l0.07 16.45a0.41 0.41 0 0 0 0.41 0.41l19.71-0.08q0.66 0 0.95 0.6 0.77 1.61 1.18 4.03 0.15 0.94 1.03 0.99 0.57 0.03 0.59-0.54l0.47-21.31q0.01-0.59-0.54-0.79c-12.16-4.45-14.17-16.74-18.05-27.7q-14.07-39.74-28.63-79.41l-6.89-18.67q-0.18-0.49-0.65-0.71c-7.02-3.23-8.89-4.91-7.57-13.3a0.54 0.53 84.5 0 0-0.71-0.59l-25 8.99q-25.86 7.99-52.62 10.48-0.99 0.09-1.34 0.87-1.46-2.25-3.78-0.32-0.91-0.72-2.37-0.6c-4.72 0.41-9.58 0.07-13.78-0.17q-3.2-0.19-0.03-0.71c18.77-3.09 35.42-5.33 55.73-11.18l2.69-0.91c11.59-2.47 23.32-7.58 34.46-11.66q0.35-0.13 0.05-0.35-3.86-2.74-8.38-3.31c-6.23-0.8-13.03-4.57-18.76-7.18-11.03-5.04-3.14-21.71 7.97-17.46q6.24 2.39 12.2 5c10.09 4.17 20.86 6.57 28.45 15.41a0.77 0.76 58.3 0 0 0.86 0.21q7.66-2.99 15.51-4.29 0.26 1.05 2.1 0.58c16.9-4.33 33.83-7.35 49.64-11.27q5.57-1.37 10.73 0c9.31 2.49 11.76 10.38 14.12 18.63 6.17 21.56 11.98 43.2 18.1 64.77a0.77 0.76-8.6 0 0 0.77 0.56l2.46-0.12q0.88-0.04 0.69-0.9c-4.74-21.01-10.51-41.75-15.21-62.75q-2.68-11.92-3.78-15.47-3.28-10.53-17.37-10.93 8.43-3.59 15.06 0.6c6.4 4.05 7.78 11.03 9.35 17.82q0.12 0.53 0.66 0.48c8.8-0.75 16.27 0.51 17.6 10.99a0.58 0.58 0 0 0 0.6 0.51l3.66-0.14q0.44-0.02 0.46-0.46c0.28-6.2 1.26-12.15 7.53-14.55 5.48-2.09 9.98 9.66 11.42 13.29q0.44 1.13-0.18 1.61a0.77 0.77 0 0 1-1.15-0.25q-2.61-5-6.05-9.1c-3.59-4.29-7.91 8.35-8.26 10.1a0.58 0.58 0 0 0 0.37 0.66l12.84 4.6q0.37 0.13 0.57-0.2c4.28-6.83 12.56-18.89 21.15-19.78 9.47-0.99 8.57 11.24 6.66 16.74a0.24 0.24 0 0 0 0.42 0.22q5.39-7.5 11.42-14.43 1.62-1.87 3.05-0.42a1.42 1.4-61.8 0 1 0.37 1.27c-1.92 8.89-6.88 15.32-13.96 20.78a0.16 0.15-54.1 0 0 0.04 0.27q0.14 0.05 0.27 0.09t0.25-0.03q6.6-4.52 12.43-10a0.55 0.54-10.6 0 1 0.88 0.6q-3.22 7.92-10.42 12.97zm-66.3 59.78 105.41 4.64q0.71 0.03 0.99-0.62l2.17-5.05q0.31-0.71-0.46-0.8-3.57-0.45-10.01-0.75-49.96-2.29-99.97-4.29-0.5-0.02-0.64-0.5-9.13-31.63-18.04-63.32c-4.16-14.76-5.31-24.85-24.12-19.48q-32.2 9.19-64.64 17.85a0.86 0.86 0 0 1-1.01-0.49c-4.57-10.56-13.07-13.11-23-16.67q-0.59-0.21-0.82 0.37l-1.55 4.02a0.65 0.64 20.1 0 0 0.39 0.83c8.44 3 19.62 5.89 18.51 17.71-0.4 4.27 1.96 3.96 5.09 3.09q35.48-9.85 71.07-19.31c7.31-1.95 10.57 3.52 12.31 9.79q8.08 29.07 16.18 58.14 1.18 4.23 1.81 7.14 0.16 0.74-0.6 0.72l-34.54-0.62a0.87 0.87 0 0 1-0.82-0.61l-19.35-60.63q-0.18-0.56-0.74-0.44l-3.55 0.73q-0.62 0.13-0.43 0.74l18.61 59.74q0.16 0.53-0.39 0.52l-31.99-0.36a1.09 1.08 80.1 0 1-1-0.71l-18.52-50.4q-0.23-0.61-0.86-0.45l-4.22 1.11q-0.57 0.15-0.37 0.7 20.56 56.77 40.9 113.63c2.3 6.43 7.21 7.91 14 8.19q75.65 3.11 151.29 6.69 0.5 0.03 0.42-0.48c-0.73-4.36-3.17-7.33-7.86-7.54q-36.93-1.66-73.89-3.42-0.49-0.02-0.62-0.49l-15.77-58.14a0.62 0.62 0 0 1 0.63-0.78zm8.88-75.34c-1.41-6.45-5.65-8.53-11.91-8.76q-2.6-0.09-1.96 2.42l7.12 28.03a0.4 0.39 43.4 0 0 0.77-0.02q1.74-9.25 5.42-17.72 0.95-2.17 0.56-3.95zm29.84 9.7q6.02 2.08 9.82 4.67a1.07 1.06 52.6 0 0 0.94 0.13q1.11-0.39 1.72-2.06l2.47-1.26a1.35 1.31-89.5 0 0 0.6-0.61q4.07-8.01 4.32-16.99 0.01-0.48-0.27-0.87c-2.76-3.81-11.46 5.26-13.23 7.54q-4.26 5.5-6.37 9.45zm-59.15 51.81 2.74-0.06a0.55 0.55 0 0 0 0.52-0.7q-7.85-28.01-15.74-55.99c-1.07-3.8-1.82-8.16-6.89-6.84q-0.5 0.13-0.35 0.63l18.98 62.41q0.17 0.56 0.74 0.55zm-21.53-0.68a0.34 0.34 0 0 0 0.31 0.24l14.78 0.34a0.34 0.34 0 0 0 0.33-0.44l-19.25-60.18a0.34 0.34 0 0 0-0.41-0.23l-13.26 3.47a0.34 0.34 0 0 0-0.24 0.43l17.74 56.37zm48.72-33.76q-2.77 2.78-1.85 6.66 4.24 17.84 6.6 25.86 0.27 0.91 0.48-0.02l0.97-4.25 14.63-41.92a0.52 0.51 23.7 0 0-0.25-0.63q-6.16-3.15-12.8-5.05-1.48-0.42-1.94 1.04l-5.84 18.31zm-68.72 33.39a0.61 0.61 0 0 0 0.44 0.4l1.73 0.39a0.61 0.61 0 0 0 0.71-0.77l-15.89-51.1a0.61 0.61 0 0 0-0.69-0.42l-2.74 0.5a0.61 0.61 0 0 0-0.47 0.8l16.91 50.2zm-18.79 0.01a0.3 0.3 0 0 0 0.28 0.2l12.47 0.31a0.3 0.3 0 0 0 0.29-0.4l-16.99-48.96a0.3 0.3 0 0 0-0.36-0.19l-11.81 3.08a0.3 0.3 0 0 0-0.21 0.39l16.33 45.57zm97.27 1.32a0.31 0.31 0 0 0 0.28 0.41l12.91 0.65a0.31 0.31 0 0 0 0.31-0.21l15.01-42.72a0.31 0.31 0 0 0-0.17-0.39l-11.08-5.08a0.31 0.31 0 0 0-0.42 0.18l-16.84 47.16zm19.8 1.25 17.77 0.75a0.66 0.66 0 0 0 0.65-0.45c3.99-11.86 7.48-24.63 12.87-35.91q0.24-0.49-0.28-0.67l-15.02-5.08q-1.35-0.46-1.83 0.88l-14.35 40.21a0.21 0.2 10.4 0 0 0.19 0.27zm25.27 1.1 19.43 0.78q0.55 0.02 0.74-0.5l10.51-29.32a1.87 1.87 0 0 0-1.37-2.46l-15.58-3.35q-0.6-0.13-0.99 0.35-1.69 2.07-2.01 2.89-6.02 15.4-11.02 31.2-0.13 0.39 0.29 0.41zm-43.02 56.35c1.36 8.79 19.15 8.28 25.74 8.58l16.34 0.87q0.54 0.03 0.71-0.48l14.65-43.04q0.22-0.65-0.46-0.68l-16.77-0.9a0.57 0.56-76.1 0 0-0.56 0.34l-14.75 34.53q-0.15 0.35-0.49 0.49-0.2 0.09-0.4 0.1-0.37-0.19-0.22-0.8c2.76-11.67 6.83-22.78 10.51-34.16a0.44 0.44 0 0 0-0.51-0.57l-0.62 0.15q-0.54 0.12-0.74 0.63l-12.76 32.34q-0.35 0.88-0.95 0.16-0.43-0.51-0.17-1.8 3.21-15.93 8.44-31.16 0.24-0.7-0.49-0.74l-16.1-0.96q-0.5-0.03-0.68 0.44c-4.91 12.71-8.44 20.77-9.97 31.67q-2.24-5.11-1.24-10.97l5.39-20.73q0.14-0.54-0.41-0.54l-8.65-0.08q-1.42-0.81-4.53-0.33-0.5 0.08-0.39 0.57 3.72 17.27 8.12 32.32 0.63 2.15 1.96 4.75zm49.48 9.69 1.54 0.55a0.51 0.51 0 0 0 0.65-0.31l13.03-37a7.59 0.74-70.6 0 0 1.83-7.4l-1.12-0.39a7.59 0.74-70.6 0 0-3.22 6.91l-13.02 36.99a0.51 0.51 0 0 0 0.31 0.65zm31.93-42.76a0.33 0.33 0 0 0-0.29-0.44l-4.44-0.24a0.33 0.33 0 0 0-0.33 0.22l-15.48 43.67a0.33 0.33 0 0 0 0.33 0.44l3.26-0.2a0.33 0.33 0 0 0 0.29-0.21l16.66-43.24zm-274.35 25.096a0.67 0.67 0 0 0-0.6511-0.6885l-3.3786-0.0944a0.67 0.67 0 0 0-0.6885 0.6511l-0.038 1.3594a0.67 0.67 0 0 0 0.6511 0.6885l3.3786 0.0944a0.67 0.67 0 0 0 0.6885-0.6511l0.038-1.3594zm374.07-0.4462a0.74 0.74 0 0 0-1.34 0.36q-0.09 0.92 0.54 1.44 0.5 0.42 0.83-0.16 0.5-0.89-0.03-1.64zm24.32 6.88a0.33 0.32 23.7 0 0 0.42-0.16q0.46-0.99-0.2-1.75a0.91 0.9 10.1 0 0-1.48 1.03q0.25 0.45 1.26 0.88zm-63.19 0.31-0.02-1.38a0.43 0.43 0 0 0-0.43-0.43h-0.19a3.1 0.94-0.7 0 0-3.09 0.98v0.36a3.1 0.94-0.7 0 0 3.11 0.9h0.19a0.43 0.43 0 0 0 0.43-0.43zm-335.21 1.583a0.26 0.26 0 0 0-0.2498-0.2698l-4.2169-0.162a0.26 0.26 0 0 0-0.2698 0.2498l-0.2111 5.496a0.26 0.26 0 0 0 0.2498 0.2698l4.2169 0.162a0.26 0.26 0 0 0 0.2698-0.2498l0.2111-5.496zm367.85 6.827 0.86-0.04a0.2 0.2 0 0 0 0.19-0.21l-0.15-3.13a0.81 0.43 87.2 0 0-0.47-0.79l-0.4 0.02a0.81 0.43 87.2 0 0-0.39 0.83l0.15 3.13a0.2 0.2 0 0 0 0.21 0.19zm29.136-2.7263a1.01 1.01 0 0 0-0.9613-1.0565l-1.9379-0.0913a1.01 1.01 0 0 0-1.0564 0.9613l-0.0368 0.7791a1.01 1.01 0 0 0 0.9613 1.0565l1.9379 0.0913a1.01 1.01 0 0 0 1.0564-0.9613l0.0368-0.7791zm-343.87-0.4137q-0.48-0.31-0.89 0.78a0.86 0.86 0 0 0 0.11 0.82l0.23 0.33a0.74 0.74 0 0 0 1.31-0.22q0.39-1.28-0.4-1.49a0.47 0.02 33.5 0 1-0.36-0.22zm256.68 1.6997a2.35 0.92 1.7 0 0-2.3217-0.9893 2.35 0.92 1.7 0 0-2.3763 0.8499 2.35 0.92 1.7 0 0 2.3217 0.9893 2.35 0.92 1.7 0 0 2.3763-0.8499zm42.854 4.8596a1.57 1.05 91.7 0 0 1.0961-1.5382 1.57 1.05 91.7 0 0-1.0029-1.6004 1.57 1.05 91.7 0 0-1.0961 1.5382 1.57 1.05 91.7 0 0 1.0029 1.6004zm95.289 0.9697a0.53 0.53 0 0 0-0.5254-0.5346l-21.619-0.1887a0.53 0.53 0 0 0-0.5346 0.5254l-0.0257 2.9399a0.53 0.53 0 0 0 0.5254 0.5346l21.619 0.1887a0.53 0.53 0 0 0 0.5346-0.5254l0.0257-2.9399zm-138.96 0.7036a0.37 0.37 0 0 0-0.3693-0.3707l-2.22-0.0038a0.37 0.37 0 0 0-0.3707 0.3693l-0.0052 3.02a0.37 0.37 0 0 0 0.3693 0.3707l2.22 0.0038a0.37 0.37 0 0 0 0.3707-0.3693l0.0052-3.02zm-309.26 0.4063a0.62 0.62 0 0 0-0.6036-0.636l-3.2189-0.0843a0.62 0.62 0 0 0-0.636 0.6035l-0.0785 2.999a0.62 0.62 0 0 0 0.6036 0.636l3.2189 0.0843a0.62 0.62 0 0 0 0.636-0.6035l0.0785-2.999zm-74.258 0.6811-0.02 1.85a0.7 0.7 0 0 0 0.7 0.71l1.8 0.01a1.8 1.24 0.4 0 0 1.81-1.22v-0.78a1.8 1.24 0.4 0 0-1.79-1.26l-1.8-0.01a0.7 0.7 0 0 0-0.7 0.7zm52.45-0.3432a0.55 0.55 0 0 0-0.5661-0.5335l-1.2195 0.0362a0.55 0.55 0 0 0-0.5334 0.5661l0.1584 5.3376a0.55 0.55 0 0 0 0.5661 0.5335l1.2195-0.0362a0.55 0.55 0 0 0 0.5334-0.5661l-0.1584-5.3376zm351.74 3.1932 0.09-1.68a0.65 0.65 0 0 0-0.62-0.68l-0.18-0.01a5.39 1.35 3 0 0-5.45 1.07l-0.01 0.28a5.39 1.35 3 0 0 5.31 1.63l0.18 0.01a0.65 0.65 0 0 0 0.68-0.62zm22.88-0.95a0.46 0.46 0 0 0-0.64 0.4l-0.13 1.71a0.98 0.98 0 0 0 1.94 0.27q0.36-1.74-1.17-2.38zm42.783 2.8607a2.93 2.44-3.9 0 0-3.0892-2.235 2.93 2.44-3.9 0 0-2.7572 2.6336 2.93 2.44-3.9 0 0 3.0892 2.235 2.93 2.44-3.9 0 0 2.7572-2.6336zm-340.56-1.1225a1.59 1.46-24.2 0 0-2.0488-0.6799 1.59 1.46-24.2 0 0-0.8518 1.9835 1.59 1.46-24.2 0 0 2.0488 0.6799 1.59 1.46-24.2 0 0 0.8518-1.9835zm-103.44 3.1867a3.38 3 1.1 0 0-3.3218-3.0643 3.38 3 1.1 0 0-3.437 2.9345 3.38 3 1.1 0 0 3.3218 3.0643 3.38 3 1.1 0 0 3.437-2.9345zm355.69-1.4449 1.32-0.25a0.59 0.51 30.7 0 0-0.35-1.05l-1.32 0.23q-0.34 0.06-0.24 0.39 0.07 0.22 0.15 0.43a0.4 0.39 74 0 0 0.44 0.25zm67.03 1.183a1.2 0.62 96.2 0 0 0.746-1.126 1.2 0.62 96.2 0 0-0.4868-1.26 1.2 0.62 96.2 0 0-0.746 1.126 1.2 0.62 96.2 0 0 0.4868 1.26zm-5.7004-1.803q-0.36-0.35-0.83-0.37a0.65 0.64 78.7 0 0-0.6 0.91l0.74 1.68q0.27 0.61 0.89 0.36 1.43-0.58 1.2-2.06a0.41 0.4-2.6 0 0-0.38-0.34l-0.77-0.06a0.42 0.36 66.2 0 1-0.25-0.12zm-61.06 7.79 1.6 0.07a0.64 0.64 0 0 0 0.61-0.9q-0.74-1.67-0.25-3.45a0.52 0.52 0 0 0-0.68-0.62l-0.91 0.33a0.96 0.94-6.5 0 0-0.61 0.75l-0.45 3a0.72 0.71 5.3 0 0 0.69 0.82zm20.186 0.0883a2.58 2.06 92.1 0 0 2.1531-2.5028 2.58 2.06 92.1 0 0-1.9641-2.6538 2.58 2.06 92.1 0 0-2.1531 2.5028 2.58 2.06 92.1 0 0 1.9641 2.6538zm-7.2855-3.0483q-0.5 1.15 0.12 2.18 0.44 0.72 0.44-0.13v-2.51a0.27 0.27 0 0 0-0.52-0.09q-0.1 0.29-0.04 0.55zm32.39 0.84q-0.53-0.18-0.55 0.38l-0.04 0.92a0.72 0.72 0 0 0 1.42 0.19q0.26-1.11-0.83-1.49zm-354.73 2.44 0.88-0.51a0.35 0.35 0 0 0-0.2-0.66l-1.16 0.08a0.37 0.37 0 0 0-0.24 0.63l0.42 0.42a0.26 0.25 51.4 0 0 0.3 0.04zm476.14 1.2111a1.14 1.14 0 0 0-1.1078-1.1714l-7.7969-0.2178a1.14 1.14 0 0 0-1.1714 1.1077l-0.0503 1.7993a1.14 1.14 0 0 0 1.1078 1.1714l7.7969 0.2178a1.14 1.14 0 0 0 1.1714-1.1077l0.0503-1.7993zm-345.5 42.399c0.35 2 0.62 3.2 2.96 3.23q29.63 0.42 59.23 1.9 2.89 0.14 5.64 0.8a0.27 0.27 0 0 1-0.06 0.54l-63.3 1.69q-0.58 0.02-0.31 0.54 3.05 5.85 4.19 12.34 0.12 0.65 0.78 0.65l83.29-0.06q0.64 0 0.72-0.64 1.92-16.14 17.78-22.77 9.11-2.18 18.59 0.97 0.67 0.22 0.88-0.45l2.2-7.04a0.63 0.63 0 0 0-0.53-0.82c-11.36-1.21-23.98-1.4-35.03-3.91a0.93 0.92-0.4 0 1-0.68-0.66q-0.39-1.43 1.45-1.73 18.58-2.96 37.41-4.52 0.52-0.04 0.66-0.54l4.4-15.36q0.3-1.03-0.77-1.08l-146.35-6.35a0.45 0.45 0 0 0-0.47 0.43l-0.78 21.91q-0.02 0.55 0.53 0.6l40.26 4.27a1.49 1.49 0 0 1 0.87 2.55q-0.96 0.93-2.86 1.14-19.35 2.16-38.78 3.86-0.54 0.05-0.64 0.58-0.22 1.24 0.14 2.52a0.66 0.66 0 0 1 0 0.42q-0.69 2.15 0.87 2.62 3.98 1.21 7.71 2.37zm-64.025-39.723a0.63 0.63 0 0 0-0.6376-0.6223l-2.4998 0.0306a0.63 0.63 0 0 0-0.6223 0.6376l0.0489 3.9997a0.63 0.63 0 0 0 0.6376 0.6223l2.4998-0.0306a0.63 0.63 0 0 0 0.6223-0.6376l-0.0489-3.9997zm-11.605-0.2972c-0.66 0.38-0.68 2.53-1.48 3.52q-0.5 0.62 0.29 0.76l1.05 0.18q0.59 0.1 0.62-0.5l0.16-3.58a0.42 0.42 0 0 0-0.64-0.38zm274.08 4.58q0.93 0.28 1.89-0.24 0.49-0.27 0.46-0.82l-0.15-2.43q-0.03-0.67-0.71-0.69-3.27-0.07-3.34 3.09-0.01 0.49 0.27 0.74 0.41 0.36 1.09 0.3 0.25-0.02 0.49 0.05zm-247.35-1.4865a1.62 1.26-2 0 0-1.663-1.2027 1.62 1.26-2 0 0-1.575 1.3157 1.62 1.26-2 0 0 1.663 1.2027 1.62 1.26-2 0 0 1.575-1.3157zm229.47 2.7365-0.21-2.99a0.5 0.5 0 0 0-0.53-0.46l-1.02 0.07a1.89 1.18 86.1 0 0-1.04 1.96l0.01 0.22a1.89 1.18 86.1 0 0 1.31 1.81l1.01-0.07a0.5 0.5 0 0 0 0.47-0.54zm-254.28 7.8652a1.65 1.49 35.8 0 0-0.4667-2.1737 1.65 1.49 35.8 0 0-2.2099 0.2433 1.65 1.49 35.8 0 0 0.4667 2.1737 1.65 1.49 35.8 0 0 2.2099-0.2433zm274.16-2.5252-2.44 0.04a0.78 0.78 0 0 0-0.77 0.79l0.02 1.15a1.83 1.53 89.1 0 0 1.56 1.81l0.94-0.02a1.83 1.53 89.1 0 0 1.5-1.85l-0.02-1.15a0.78 0.78 0 0 0-0.79-0.77zm-27.212 3.4913a1.93 1.15 12 0 0-1.6487-1.5262 1.93 1.15 12 0 0-2.1269 0.7236 1.93 1.15 12 0 0 1.6487 1.5262 1.93 1.15 12 0 0 2.1269-0.7236zm-202.47 5.6787q-0.05 0.94 0.71 0.37l0.65-0.49q0.77-0.57-0.17-0.76-1.13-0.22-1.19 0.88zm199.55 0.79q-0.3-0.4-0.74 0.08a0.55 0.54 30 0 0 0.24 0.88l0.29 0.09a0.48 0.48 0 0 0 0.61-0.33q0.19-0.72-0.4-0.72zm-250.85 4.8875a4.54 3.53 0.6 0 0-4.5028-3.5773 4.54 3.53 0.6 0 0-4.5768 3.4823 4.54 3.53 0.6 0 0 4.5028 3.5773 4.54 3.53 0.6 0 0 4.5768-3.4823zm56 19.152c-22.12 6.63-14.69 40.08 7.28 37.76 14.36-1.51 23.14-17.2 14.6-29.92q-0.31-0.46-0.84-0.29l-5.48 1.73a0.68 0.66-13.9 0 0-0.46 0.75c1 6.27-1.89 12.71-8.08 14.67-16.13 5.11-20.26-22.01-0.5-21.18q0.52 0.02 0.52-0.5v-3.72q0-0.42-0.42-0.36c-2.19 0.33-4.69 0.47-6.62 1.06zm144.85 26.6c-19.3 4.36-15.79-29.51 4.6-19.14q0.54 0.27 0.82-0.26l2.12-4.08a1.26 1.26 0 0 0-0.8-1.8q-15.27-4.04-23.31 6.16c-9.79 12.41 1.43 30.98 16.17 30.21 15.17-0.8 23.61-17.38 15.25-30.11q-0.35-0.54-0.63 0.04c-3.02 6.3-6.02 17.13-14.22 18.98zm-137.99-12.08a3.59 3.59 0 0 0-3.59-3.59 3.59 3.59 0 0 0-3.59 3.59 3.59 3.59 0 0 0 3.59 3.59 3.59 3.59 0 0 0 3.59-3.59zm138.05 1.66a3.15 3.15 0 0 0-3.15-3.15 3.15 3.15 0 0 0-3.15 3.15 3.15 3.15 0 0 0 3.15 3.15 3.15 3.15 0 0 0 3.15-3.15zm-236.25 16.24 14.46 13.2q0.43 0.39 1.01 0.39c75.93 0.05 151.85-0.2 227.78 0.26a0.58 0.56 27.7 0 0 0.31-0.09q0.28-0.16 0.58-0.16 51.47-0.02 103.02 0.01a1.14 1.11-65.2 0 0 0.74-0.28l15.51-13.67q0.64-0.56-0.21-0.56h-104.08a1.03 1.02-74.4 0 0-0.88 0.5c-10.87 17.9-34.88 17.62-45.96-0.17q-0.22-0.35-0.64-0.35l-90.52 0.03a0.69 0.68-74.6 0 0-0.59 0.34c-10.28 17.59-35.18 17.91-45.89 0.44-0.9-1.47-1.86-0.79-3.13-0.79q-35.89 0-71.16 0-1.33 0-0.35 0.9zm34.74 28.5q10.67 7.29 21.46 12.97 1.95 1.02 4.2 1.02c91.82-0.38 145.23-1.04 209.72 1.61q3.83 0.16 7.64 0.67 0.44 0.06 0.69 0.3 0.29 0.29 0.39 0.67a0.8 0.79 75.6 0 1-0.58 0.99q-2.56 0.6-5.38 0.68-26.01 0.76-52.04 1-0.53 0.01-0.81 0.45c-2.71 4.27-2.82 7.36-8.96 7.4-41.96 0.32-83.86 0.08-125.81-0.02a0.15 0.14 54.3 0 0-0.04 0.28c37.86 14.21 76.06 20.76 116.52 17.63 44.9-3.46 87.91-19.39 125.26-44.95q1.61-1.1-0.34-1.1h-291.8q-0.71 0-0.12 0.4z" fill="#211515"/> <path d="m459.66 440.82q14.09 0.4 17.37 10.93 1.1 3.55 3.78 15.47c4.7 21 10.47 41.74 15.21 62.75q0.19 0.86-0.69 0.9l-2.46 0.12a0.77 0.76-8.6 0 1-0.77-0.56c-6.12-21.57-11.93-43.21-18.1-64.77-2.36-8.25-4.81-16.14-14.12-18.63q-5.16-1.37-10.73 0c-15.81 3.92-32.74 6.94-49.64 11.27q-1.84 0.47-2.1-0.58l1.54-0.77 60.71-16.13z" fill="#7c1516"/> <path d="m490.4 544.84a0.62 0.62 0 0 0-0.63 0.78l15.77 58.14q0.13 0.47 0.62 0.49 36.96 1.76 73.89 3.42c4.69 0.21 7.13 3.18 7.86 7.54q0.08 0.51-0.42 0.48-75.64-3.58-151.29-6.69c-6.79-0.28-11.7-1.76-14-8.19q-20.34-56.86-40.9-113.63-0.2-0.55 0.37-0.7l4.22-1.11q0.63-0.16 0.86 0.45l18.52 50.4a1.09 1.08 80.1 0 0 1 0.71l31.99 0.36q0.55 0.01 0.39-0.52l-18.61-59.74q-0.19-0.61 0.43-0.74l3.55-0.73q0.56-0.12 0.74 0.44l19.35 60.63a0.87 0.87 0 0 0 0.82 0.61l34.54 0.62q0.76 0.02 0.6-0.72-0.63-2.91-1.81-7.14-8.1-29.07-16.18-58.14c-1.74-6.27-5-11.74-12.31-9.79q-35.59 9.46-71.07 19.31c-3.13 0.87-5.49 1.18-5.09-3.09 1.11-11.82-10.07-14.71-18.51-17.71a0.65 0.64 20.1 0 1-0.39-0.83l1.55-4.02q0.23-0.58 0.82-0.37c9.93 3.56 18.43 6.11 23 16.67a0.86 0.86 0 0 0 1.01 0.49q32.44-8.66 64.64-17.85c18.81-5.37 19.96 4.72 24.12 19.48q8.91 31.69 18.04 63.32 0.14 0.48 0.64 0.5 50.01 2 99.97 4.29 6.44 0.3 10.01 0.75 0.77 0.09 0.46 0.8l-2.17 5.05q-0.28 0.65-0.99 0.62l-105.41-4.64zm-59.64 56.53 27.72 0.9q0.78 0.03 0.55-0.72l-17.83-56.81q-0.19-0.59-0.8-0.6l-31.74-0.52a0.35 0.35 0 0 0-0.33 0.47l19.86 55.41a2.83 2.82 81 0 0 2.57 1.87zm34.04 1.02a0.31 0.31 0 0 0 0.29 0.22l33.35 1.4a0.31 0.31 0 0 0 0.31-0.39l-15.99-58.46a0.31 0.31 0 0 0-0.29-0.23l-35.72-0.92a0.31 0.31 0 0 0-0.3 0.4l18.35 57.98z" fill="#fefeff"/> <path d="m487.37 460.74c6.26 0.23 10.5 2.31 11.91 8.76q0.39 1.78-0.56 3.95-3.68 8.47-5.42 17.72a0.4 0.39 43.4 0 1-0.77 0.02l-7.12-28.03q-0.64-2.51 1.96-2.42z" fill="#7c1516"/> <path d="m541.6 481.94q-1.14-2.83-3.41-4.63-3.61-2.85-9.07 1.89 2.11-3.95 6.37-9.45c1.77-2.28 10.47-11.35 13.23-7.54q0.28 0.39 0.27 0.87-0.25 8.98-4.32 16.99a1.35 1.31-89.5 0 1-0.6 0.61l-2.47 1.26z" fill="#fefeff"/> <path d="m469.97 531.01q-0.57 0.01-0.74-0.55l-18.98-62.41q-0.15-0.5 0.35-0.63c5.07-1.32 5.82 3.04 6.89 6.84q7.89 27.98 15.74 55.99a0.55 0.55 0 0 1-0.52 0.7l-2.74 0.06z" fill="#7c1516"/> <ellipse transform="translate(296.24,469.52) rotate(18.4)" rx="1.56" ry="1.24" fill="#fa992d"/> <path d="m448.44 530.33-17.74-56.37a0.34 0.34 0 0 1 0.24-0.43l13.26-3.47a0.34 0.34 0 0 1 0.41 0.23l19.25 60.18a0.34 0.34 0 0 1-0.33 0.44l-14.78-0.34a0.34 0.34 0 0 1-0.31-0.24z" fill="#be2a1c"/> <path d="m381.37 508.17c1.15 10.58 1.03 20.42 3.26 31.25q0.1 0.5-0.31 0.2c-7.59-5.54-15.99-6.23-24.89-3.1q-8.93-13.11-21.85-20.53l2.97-32.1 25-8.99a0.54 0.53 84.5 0 1 0.71 0.59c-1.32 8.39 0.55 10.07 7.57 13.3q0.47 0.22 0.65 0.71l6.89 18.67z" fill="#fa992d"/> <path d="m541.6 481.94q-0.61 1.67-1.72 2.06a1.07 1.06 52.6 0 1-0.94-0.13q-3.8-2.59-9.82-4.67 5.46-4.74 9.07-1.89 2.27 1.8 3.41 4.63z" fill="#fa992d"/> <path d="m503.36 524.82-6.2-28.25 5.84-18.31q0.46-1.46 1.94-1.04 6.64 1.9 12.8 5.05a0.52 0.51 23.7 0 1 0.25 0.63l-14.63 41.92z" fill="#fa992d"/> <path d="m428.44 529.96-16.91-50.2a0.61 0.61 0 0 1 0.47-0.8l2.74-0.5a0.61 0.61 0 0 1 0.69 0.42l15.89 51.1a0.61 0.61 0 0 1-0.71 0.77l-1.73-0.39a0.61 0.61 0 0 1-0.44-0.4z" fill="#be2a1c"/> <path d="m325.05 481.35-2.69 0.91q-0.86-1.29-0.61-2.15 0.28-1.01 1.53-0.9 1.41 0.12 1.77 2.14z" fill="#fefeff"/> <path d="m409.65 529.97-16.33-45.57a0.3 0.3 0 0 1 0.21-0.39l11.81-3.08a0.3 0.3 0 0 1 0.36 0.19l16.99 48.96a0.3 0.3 0 0 1-0.29 0.4l-12.47-0.31a0.3 0.3 0 0 1-0.28-0.2z" fill="#be2a1c"/> <path d="m556.7 485.06q3.33 0.85 4.8 3.11-0.67 1.16-1.69 1.78-0.46 0.29-0.97 0.09l-12.36-4.67q-0.39-0.15-0.14-0.49 1.54-2.09 4.05-2.7a1.4 1.36-37.6 0 1 0.95 0.11l5.36 2.77z" fill="#fa992d"/> <path d="m506.92 531.29 16.84-47.16a0.31 0.31 0 0 1 0.42-0.18l11.08 5.08a0.31 0.31 0 0 1 0.17 0.39l-15.01 42.72a0.31 0.31 0 0 1-0.31 0.21l-12.91-0.65a0.31 0.31 0 0 1-0.28-0.41z" fill="#fa992d"/> <path d="m569.34 489.9c1.85 0.24 3.82 0.11 5.49 0.77q4.62 1.81 7.61 5.41l-15.75-4.07q-0.55-0.14-0.07-0.43l2.72-1.68z" fill="#fa992d"/> <path d="m526.72 532.54a0.21 0.2 10.4 0 1-0.19-0.27l14.35-40.21q0.48-1.34 1.83-0.88l15.02 5.08q0.52 0.18 0.28 0.67c-5.39 11.28-8.88 24.05-12.87 35.91a0.66 0.66 0 0 1-0.65 0.45l-17.77-0.75z" fill="#fa992d"/> <circle cx="741.49" cy="496.64" r="3.91" fill="#fa992d"/> <path d="m286.59 495.24q-3.26 2.91-3.78-0.32 2.32-1.93 3.78 0.32z" fill="#fef5de"/> <ellipse transform="translate(314.12 498.8) rotate(-7.6)" rx="2.73" ry="2.3" fill="#fefeff"/> <path d="m497.16 496.57 6.2 28.25-0.97 4.25q-0.21 0.93-0.48 0.02-2.36-8.02-6.6-25.86-0.92-3.88 1.85-6.66z" fill="#be2a1c"/> <path d="m571.42 534.42-19.43-0.78q-0.42-0.02-0.29-0.41 5-15.8 11.02-31.2 0.32-0.82 2.01-2.89 0.39-0.48 0.99-0.35l15.58 3.35a1.87 1.87 0 0 1 1.37 2.46l-10.51 29.32q-0.19 0.52-0.74 0.5z" fill="#e85c24"/> <circle cx="707.24" cy="501.78" r="2.56" fill="#fefeff"/> <path d="m799.63 573.45c7.87 5.55 10.4 10.42 12.11 19.83a0.57 0.57 0 0 0 0.68 0.45c10.26-2.13 18.51-2.83 24.99 6.76a0.77 0.76-25.1 0 0 0.84 0.3q11.03-3.17 21.49-1.99c17.15 1.93 31.19 16.66 28.27 34.61-2.26 13.89-13.39 23.59-27.04 26.53-7.94 1.7-13.73 0.8-20.6 0.81a0.64 0.63 0.5 0 0-0.64 0.62c-0.48 16.57-14.65 23.77-29.56 22.39q-37.18-3.45-73.6-6.99l-24.69-2.53-58.86-6.41-5.83-1.27a0.16 0.16 0 0 1 0.01-0.31q0.2-0.02 0.44 0.01a0.13 0.13 0 0 0 0.11-0.22l-0.34-0.34a0.72 0.72 0 0 1 0.42-1.22c3.87-0.47 6.91 0.64 10.17-2.03q0.74-0.6-0.18-0.82l-1.89-0.45a0.53 0.53 0 0 1-0.41-0.54q0.05-1.07-1.09-1.38-0.51-0.15-0.18-0.56 0.24-0.31 0.75-0.24 43.84 4.36 87.52 10.08c17.64 2.31 34.96 2.48 52.48 2.22q3.02-0.04 6.86-0.67a1.07 1.07 0 0 0 0.48-1.91c-0.49-0.37-1.8-0.95-2.53-1.07q-23.16-3.68-46.56-5.38-0.69-0.05-2.93-1.1a0.91 0.9-81.4 0 1-0.52-0.72c-0.58-4.78 4.33-6.1 8.14-6.11q32.49-0.08 64.99-0.05 1.82 0 2.97-1.72 0.33-0.5-0.25-0.62-4.24-0.87-8.32-1.32-21.37-2.33-42.72-4.6-0.39-0.04-0.17-0.36 0.12-0.17 0.31-0.17c23.49-0.87 51.79-1.19 77.63-3.03a0.93 0.93 0 0 0 0.53-1.64c-0.62-0.53-2.06-1.1-2.97-1.18q-32.14-2.82-50.44-3.11c-45.25-0.74-90.5-1.07-135.75-1.95q-0.32-0.01-0.12-0.36a0.28 0.26-73.9 0 1 0.23-0.14c43.48-1.23 89.19-0.93 120.95-1.68q37.75-0.88 76.08-4.16a0.98 0.98 0 0 0 0.89-0.89q0.15-1.72-2.28-1.85-23.71-1.33-47.43-2.47c-5.57-0.26-13.29 0.25-13.98-5.45a1.3 1.29-32.4 0 1 0.2-0.87q1.82-2.84 4.2-2.97 15.05-0.82 30.16-1.84a0.86 0.86 0 0 0 0.5-1.51q-0.48-0.4-1.41-0.51-13.71-1.58-27.49-2.34-1.29-0.08-2.98-1.33a1.18 1.16 13.6 0 1-0.46-0.74c-0.85-4.33-9.29-3.46-13.39-6.24q-3.67-2.49-7.93-3.79-0.49-0.16-0.49-0.67v-7.49a0.75 0.75 0 0 0-0.75-0.75h-12.94q-0.45 0-0.48 0.45l-0.31 5.09q-0.06 0.99-1.06 0.99l-27.19-0.04a0.48 0.48 0 0 1-0.48-0.47l-0.14-12.7a0.58 0.57-0 0 0-0.58-0.57h-16.32q-0.75 0-0.75 0.75v1.98q0 0.73-0.73 0.73l-12.13 0.06q-0.45 0-0.43 0.46 0.21 3.72-0.24 7.43a1.01 1 76 0 1-0.43 0.72l-0.66 0.44a0.71 0.68 74.8 0 0-0.29 0.53l-0.27 4.68a0.56 0.55 33 0 1-1.05 0.22q-1.23-2.38 0.03-4.72 0.29-0.53-0.31-0.53h-1.92q-0.68 0-0.71 0.68l-0.54 13.63q-0.02 0.66-0.68 0.67l-1.94 0.03q-0.57 0-0.58-0.57l-0.59-30.06q-0.01-0.63-0.65-0.63h-8.06q-0.67 0-0.66 0.67l0.13 9.26q0.01 0.47-0.47 0.49l-9.32 0.32q-0.5 0.02-0.5 0.51v31.22a0.51 0.51 0 0 1-0.34 0.48l-0.32 0.1a0.57 0.57 0 0 1-0.75-0.53l-0.31-26.06a2.57 2.56 6.3 0 0-1.98-2.47l-4.14-0.97q-0.61-0.15-0.88-0.71l-2.37-5.07a0.86 0.84-12.6 0 0-0.77-0.48l-17.71-0.02a1.21 1.21 0 0 1-1.2-1.34q0.3-3-0.7-5.46 0.67-0.27 0.69-1.64 0-0.48-0.31-0.85c-1.16-1.37-0.29-2.52 1.15-3.09 5.74-2.27 14.61-6.82 16.26-12.83q3.18-11.51 4.02-15.44 0.53-2.47-1.1-3.25c8.39-11.91 21.87-17.69 36.19-16.92 18.12 0.97 32.57 12.23 39.05 29.29a0.36 0.36 0 0 0 0.45 0.22q15.48-5.01 23.02 6.94c2.72 4.3 2.94 9.83 2.79 14.86q-0.02 0.8 0.77 0.75c5.48-0.35 11.03-2.31 15.79-2.45q8.77-0.24 17.33 2.67z" fill="#fefeff"/> <path d="m664.24 538.09q1.63 0.78 1.1 3.25-0.84 3.93-4.02 15.44c-1.65 6.01-10.52 10.56-16.26 12.83-1.44 0.57-2.31 1.72-1.15 3.09q0.31 0.37 0.31 0.85-0.02 1.37-0.69 1.64l-18.62-0.04a0.33 0.32-89.1 0 0-0.32 0.32l-0.13 14.24a0.84 0.84 0 0 1-0.85 0.83l-4.73-0.06q-0.65 0-0.65 0.64l0.06 35.73q0 0.57-0.57 0.57l-7.96 0.11a1.19 1.19 0 0 0-1.18 1.21l0.23 12.43a0.85 0.84 90 0 1-0.86 0.87l-6.99-0.15a0.45 0.45 0 0 1-0.08-0.9l4.11-0.82q0.47-0.1 0.28-0.54-0.09-0.22-0.29-0.37-0.19-0.13-0.5-0.11-7.44 0.43-14.89 0.91-0.57 0.03-0.42-0.51 3.27-11.8 7.12-23.26 0.72-2.16-1.09-5.48c-2.86-5.25-6.14-10.62-11.62-9.76a0.57 0.57 0 0 1-0.62-0.76q7.44-20.18 15.38-39.97 0.41-1.03 2.59-3.66l1.78 0.68q0.47 0.17 0.9-0.06 7.72-4.1 17.8-4.81 3.12-0.22 4.86-2.4 2.61-0.55 3.92-1.88 7.49-7.64 17.82-9.09c4.58 0.61 8.44 0.48 12.6 2.78a0.63 0.62-56.7 0 0 0.8-0.17l2.83-3.62z" fill="#fef5de"/> <path d="m430.76 601.37a2.83 2.82 81 0 1-2.57-1.87l-19.86-55.41a0.35 0.35 0 0 1 0.33-0.47l31.74 0.52q0.61 0.01 0.8 0.6l17.83 56.81q0.23 0.75-0.55 0.72l-27.72-0.9zm3.03-6.38 9.8 0.33a0.54 0.54 0 0 0 0.56-0.63q-0.08-0.46-0.35-0.78-0.23-0.27-0.35-0.61l-14.54-42.13q-0.24-0.67-0.95-0.7l-9.98-0.45q-0.7-0.04-0.47 0.62l15.43 43.72q0.21 0.6 0.85 0.63zm3.7603-44.891a0.27 0.27 0 0 0-0.3396-0.1746l-1.8091 0.5809a0.27 0.27 0 0 0-0.1745 0.3396l14.203 44.236a0.27 0.27 0 0 0 0.3396 0.1746l1.8091-0.5809a0.27 0.27 0 0 0 0.1745-0.3396l-14.203-44.236z" fill="#211515"/> <path d="m464.8 602.39-18.35-57.98a0.31 0.31 0 0 1 0.3-0.4l35.72 0.92a0.31 0.31 0 0 1 0.29 0.23l15.99 58.46a0.31 0.31 0 0 1-0.31 0.39l-33.35-1.4a0.31 0.31 0 0 1-0.29-0.22zm-6.6-42.56-0.44 0.71q-0.29 0.48-0.09 1 6.34 16.74 11.05 34.02a1.09 1.08-8.3 0 0 1.09 0.8l13.12-0.5q0.65-0.02 0.44-0.63-0.12-0.38-0.47-0.66a1.27 1.24-79.2 0 1-0.45-0.68c-3.71-14.33-8.84-27.69-12.57-41.82q-0.12-0.46-0.59-0.48l-13.59-0.62q-0.97-0.04-0.69 0.89 1.13 3.71 3.18 6.99 0.3 0.48 0.01 0.98zm29.99 31.83a0.84 0.84 0 0 0 1.54-0.59c-2.22-12.94-6.81-26.12-10.09-38.93q-0.13-0.51-0.66-0.57l-2.72-0.32a0.79 0.79 0 0 0-0.85 1.01c3.02 10.17 6.32 20.23 8.88 30.39q1.18 4.71 3.9 9.01z" fill="#211515"/> <path d="m443.59 595.32-9.8-0.33q-0.64-0.03-0.85-0.63l-15.43-43.72q-0.23-0.66 0.47-0.62l9.98 0.45q0.71 0.03 0.95 0.7l14.54 42.13q0.12 0.34 0.35 0.61 0.27 0.32 0.35 0.78a0.54 0.54 0 0 1-0.56 0.63z" fill="#be2a1c"/> <rect transform="translate(443.49,572.59) rotate(-17.8)" x="-1.22" y="-23.5" width="2.44" height="47" rx=".27" fill="#be2a1c"/> <path d="m458.19 558.85q-2.05-3.28-3.18-6.99-0.28-0.93 0.69-0.89l13.59 0.62q0.47 0.02 0.59 0.48c3.73 14.13 8.86 27.49 12.57 41.82a1.27 1.24-79.2 0 0 0.45 0.68q0.35 0.28 0.47 0.66 0.21 0.61-0.44 0.63l-13.12 0.5a1.09 1.08-8.3 0 1-1.09-0.8q-4.71-17.28-11.05-34.02-0.2-0.52 0.09-1l0.44-0.71q0.29-0.5-0.01-0.98z" fill="#7c1516"/> <path d="m488.19 591.66q-2.72-4.3-3.9-9.01c-2.56-10.16-5.86-20.22-8.88-30.39a0.79 0.79 0 0 1 0.85-1.01l2.72 0.32q0.53 0.06 0.66 0.57c3.28 12.81 7.87 25.99 10.09 38.93a0.84 0.84 0 0 1-1.54 0.59z" fill="#7c1516"/> <path d="m503.81 552.68 3.67 21.35q-1 5.86 1.24 10.97 1.13 2.82 0.25 4.99-1.33-2.6-1.96-4.75-4.4-15.05-8.12-32.32-0.11-0.49 0.39-0.57 3.11-0.48 4.53 0.33z" fill="#7c1516"/> <path d="m503.81 552.68 8.65 0.08q0.55 0 0.41 0.54l-5.39 20.73-3.67-21.35z" fill="#e85c24"/> <path d="m532.98 589.8 0.25 0.18q0.3 0.21 0.11 0.51c-1.23 1.98 0.05 5.1 1.51 6.52q0.3 0.31 0.16 0.71l-0.3 0.85c-6.59-0.3-24.38 0.21-25.74-8.58q0.88-2.17-0.25-4.99c1.53-10.9 5.06-18.96 9.97-31.67q0.18-0.47 0.68-0.44l16.1 0.96q0.73 0.04 0.49 0.74-5.23 15.23-8.44 31.16-0.26 1.29 0.17 1.8 0.6 0.72 0.95-0.16l12.76-32.34q0.2-0.51 0.74-0.63l0.62-0.15a0.44 0.44 0 0 1 0.51 0.57c-3.68 11.38-7.75 22.49-10.51 34.16q-0.15 0.61 0.22 0.8z" fill="#fa992d"/> <path d="m534.71 598.57 0.3-0.85q0.14-0.4-0.16-0.71c-1.46-1.42-2.74-4.54-1.51-6.52q0.19-0.3-0.11-0.51l-0.25-0.18q0.2-0.01 0.4-0.1 0.34-0.14 0.49-0.49l14.75-34.53a0.57 0.56-76.1 0 1 0.56-0.34l16.77 0.9q0.68 0.03 0.46 0.68l-14.65 43.04q-0.17 0.51-0.71 0.48l-16.34-0.87z" fill="#e85c24"/> <path d="m558.45 599.68a0.51 0.51 0 0 1-0.31-0.65l13.02-36.99a7.59 0.74-70.6 0 1 3.22-6.91l1.12 0.39a7.59 0.74-70.6 0 1-1.83 7.4l-13.03 37a0.51 0.51 0 0 1-0.65 0.31l-1.54-0.55z" fill="#fefeff"/> <path d="m590.38 556.92-16.66 43.24a0.33 0.33 0 0 1-0.29 0.21l-3.26 0.2a0.33 0.33 0 0 1-0.33-0.44l15.48-43.67a0.33 0.33 0 0 1 0.33-0.22l4.44 0.24a0.33 0.33 0 0 1 0.29 0.44z" fill="#fefeff"/> <rect transform="translate(313.65,582.63) rotate(1.6)" x="-2.36" y="-1.35" width="4.72" height="2.7" rx=".67" fill="#fefeff"/> <path d="m690.1 581.57q0.53 0.75 0.03 1.64-0.33 0.58-0.83 0.16-0.63-0.52-0.54-1.44a0.74 0.74 0 0 1 1.34-0.36z" fill="#fefeff"/> <path d="m714.42 588.45q-1.01-0.43-1.26-0.88a0.91 0.9 10.1 0 1 1.48-1.03q0.66 0.76 0.2 1.75a0.33 0.32 23.7 0 1-0.42 0.16z" fill="#fefeff"/> <path d="m651.23 588.76a0.43 0.43 0 0 1-0.43 0.43h-0.19a3.1 0.94-0.7 0 1-3.11-0.9v-0.36a3.1 0.94-0.7 0 1 3.09-0.98h0.19a0.43 0.43 0 0 1 0.43 0.43l0.02 1.38z" fill="#fefeff"/> <rect transform="translate(313.55 593) rotate(2.2)" x="-2.37" y="-3.01" width="4.74" height="6.02" rx=".26" fill="#fefeff"/> <path d="m683.87 597.17a0.2 0.2 0 0 1-0.21-0.19l-0.15-3.13a0.81 0.43 87.2 0 1 0.39-0.83l0.4-0.02a0.81 0.43 87.2 0 1 0.47 0.79l0.15 3.13a0.2 0.2 0 0 1-0.19 0.21l-0.86 0.04z" fill="#fefeff"/> <rect transform="translate(711.01,594.74) rotate(2.7)" x="-1.98" y="-1.4" width="3.96" height="2.8" rx="1.01" fill="#fefeff"/> <path d="m369.5 594.25q0.79 0.21 0.4 1.49a0.74 0.74 0 0 1-1.31 0.22l-0.23-0.33a0.86 0.86 0 0 1-0.11-0.82q0.41-1.09 0.89-0.78a0.47 0.02 33.5 0 0 0.36 0.22z" fill="#fef5de"/> <ellipse transform="translate(623.47,595.66) rotate(1.7)" rx="2.35" ry=".92" fill="#fefeff"/> <ellipse transform="translate(668.72,599.02) rotate(91.7)" rx="1.57" ry="1.05" fill="#fefeff"/> <rect transform="translate(752.61 602.93) rotate(.5)" x="-11.34" y="-2" width="22.68" height="4" rx=".53" fill="#fefeff"/> <rect transform="translate(623.52 603.77) rotate(.1)" x="-1.48" y="-1.88" width="2.96" height="3.76" rx=".37" fill="#fefeff"/> <rect transform="translate(313.47,604.11) rotate(1.5)" x="-2.23" y="-2.12" width="4.46" height="4.24" rx=".62" fill="#fefeff"/> <path d="m241.48 603.35a0.7 0.7 0 0 1 0.7-0.7l1.8 0.01a1.8 1.24 0.4 0 1 1.79 1.26v0.78a1.8 1.24 0.4 0 1-1.81 1.22l-1.8-0.01a0.7 0.7 0 0 1-0.7-0.71l0.02-1.85z" fill="#fefeff"/> <rect transform="translate(292.85,605.71) rotate(-1.7)" x="-1.16" y="-3.22" width="2.32" height="6.44" rx=".55" fill="#fefeff"/> <path d="m645.67 606.2a0.65 0.65 0 0 1-0.68 0.62l-0.18-0.01a5.39 1.35 3 0 1-5.31-1.63l0.01-0.28a5.39 1.35 3 0 1 5.45-1.07l0.18 0.01a0.65 0.65 0 0 1 0.62 0.68l-0.09 1.68z" fill="#fefeff"/> <path d="m668.55 605.25q1.53 0.64 1.17 2.38a0.98 0.98 0 0 1-1.94-0.27l0.13-1.71a0.46 0.46 0 0 1 0.64-0.4z" fill="#fefeff"/> <ellipse transform="translate(708.41,608.31) rotate(-3.9)" rx="2.93" ry="2.44" fill="#fefeff"/> <ellipse transform="translate(369.32,607.64) rotate(-24.2)" rx="1.59" ry="1.46" fill="#fef5de"/> <ellipse transform="translate(263.95,610.11) rotate(1.1)" rx="3.38" ry="3" fill="#fefeff"/> <path d="m622.58 608.48q-0.08-0.21-0.15-0.43-0.1-0.33 0.24-0.39l1.32-0.23a0.59 0.51 30.7 0 1 0.35 1.05l-1.32 0.25a0.4 0.39 74 0 1-0.44-0.25z" fill="#fa992d"/> <ellipse transform="translate(690.18,608.72) rotate(96.2)" rx="1.2" ry=".62" fill="#fef5de"/> <path d="m684.6 608.23 0.77 0.06a0.41 0.4-2.6 0 1 0.38 0.34q0.23 1.48-1.2 2.06-0.62 0.25-0.89-0.36l-0.74-1.68a0.65 0.64 78.7 0 1 0.6-0.91q0.47 0.02 0.83 0.37a0.42 0.36 66.2 0 0 0.25 0.12z" fill="#fefeff"/> <path d="m623.29 615.9a0.72 0.71 5.3 0 1-0.69-0.82l0.45-3a0.96 0.94-6.5 0 1 0.61-0.75l0.91-0.33a0.52 0.52 0 0 1 0.68 0.62q-0.49 1.78 0.25 3.45a0.64 0.64 0 0 1-0.61 0.9l-1.6-0.07z" fill="#fef5de"/> <path d="m643.48 615.99a2.58 2.06 92.1 0 1-1.9641-2.6538 2.58 2.06 92.1 0 1 2.1531-2.5028 2.58 2.06 92.1 0 1 1.9641 2.6538 2.58 2.06 92.1 0 1-2.1531 2.5028zm-0.3955-2.0583 0.22 0.38a0.24 0.24 0 0 0 0.4 0.02q0.58-0.8 0.14-1.63a0.28 0.28 0 0 0-0.49-0.03q-0.1 0.15-0.14 0.32a1.09 0.17-73.5 0 0-0.13 0.94z" fill="#fefeff"/> <path d="m636.19 612.94q-0.06-0.26 0.04-0.55a0.27 0.27 0 0 1 0.52 0.09v2.51q0 0.85-0.44 0.13-0.62-1.03-0.12-2.18z" fill="#fefeff"/> <path d="m643.21 612.99q0.04-0.17 0.14-0.32a0.28 0.28 0 0 1 0.49 0.03q0.44 0.83-0.14 1.63a0.24 0.24 0 0 1-0.4-0.02l-0.22-0.38a1.09 0.17-73.5 0 1 0.13-0.94z" fill="#fa992d"/> <path d="m668.58 613.78q1.09 0.38 0.83 1.49a0.72 0.72 0 0 1-1.42-0.19l0.04-0.92q0.02-0.56 0.55-0.38z" fill="#fefeff"/> <path d="m313.55 616.18-0.42-0.42a0.37 0.37 0 0 1 0.24-0.63l1.16-0.08a0.35 0.35 0 0 1 0.2 0.66l-0.88 0.51a0.26 0.25 51.4 0 1-0.3-0.04z" fill="#fefeff"/> <rect transform="translate(784.93,618.19) rotate(1.6)" x="-5.04" y="-2.04" width="10.08" height="4.08" rx="1.14" fill="#fefeff"/> <path d="m555.41 658.05c-14.11-1.21-28.05-2.03-41.75-3.53q-4.4-0.48-8.78 0.07c-19.97 2.49-40.33 3.69-60.39 5.24q-3.73-1.16-7.71-2.37-1.56-0.47-0.87-2.62a0.66 0.66 0 0 0 0-0.42q-0.36-1.28-0.14-2.52 0.1-0.53 0.64-0.58 19.43-1.7 38.78-3.86 1.9-0.21 2.86-1.14a1.49 1.49 0 0 0-0.87-2.55l-40.26-4.27q-0.55-0.05-0.53-0.6l0.78-21.91a0.45 0.45 0 0 1 0.47-0.43l146.35 6.35q1.07 0.05 0.77 1.08l-4.4 15.36q-0.14 0.5-0.66 0.54-18.83 1.56-37.41 4.52-1.84 0.3-1.45 1.73a0.93 0.92-0.4 0 0 0.68 0.66c11.05 2.51 23.67 2.7 35.03 3.91a0.63 0.63 0 0 1 0.53 0.82l-2.2 7.04q-0.21 0.67-0.88 0.45-9.48-3.15-18.59-0.97z" fill="#fef5de"/> <rect transform="translate(378.61 622.13) rotate(-.7)" x="-1.88" y="-2.63" width="3.76" height="5.26" rx=".63" fill="#fefeff"/> <path d="m367.38 623.33c0.8-0.99 0.82-3.14 1.48-3.52a0.42 0.42 0 0 1 0.64 0.38l-0.16 3.58q-0.03 0.6-0.62 0.5l-1.05-0.18q-0.79-0.14-0.29-0.76z" fill="#fefeff"/> <path d="m642.45 624.34q-0.68 0.06-1.09-0.3-0.28-0.25-0.27-0.74 0.07-3.16 3.34-3.09 0.68 0.02 0.71 0.69l0.15 2.43q0.03 0.55-0.46 0.82-0.96 0.52-1.89 0.24-0.24-0.07-0.49-0.05z" fill="#fefeff"/> <ellipse transform="translate(393.97 622.96) rotate(-2)" rx="1.62" ry="1.26" fill="#fefeff"/> <path d="m625.06 625.64a0.5 0.5 0 0 1-0.47 0.54l-1.01 0.07a1.89 1.18 86.1 0 1-1.31-1.81l-0.01-0.22a1.89 1.18 86.1 0 1 1.04-1.96l1.02-0.07a0.5 0.5 0 0 1 0.53 0.46l0.21 2.99z" fill="#fef5de"/> <ellipse transform="translate(369.44,632.54) rotate(35.8)" rx="1.65" ry="1.49" fill="#fefeff"/> <path d="m644.94 630.98a0.78 0.78 0 0 1 0.79 0.77l0.02 1.15a1.83 1.53 89.1 0 1-1.5 1.85l-0.94 0.02a1.83 1.53 89.1 0 1-1.56-1.81l-0.02-1.15a0.78 0.78 0 0 1 0.77-0.79l2.44-0.04z" fill="#fefeff"/> <ellipse transform="translate(615.84 634.07) rotate(12)" rx="1.93" ry="1.15" fill="#fefeff"/> <path d="m415.26 640.15q0.06-1.1 1.19-0.88 0.94 0.19 0.17 0.76l-0.65 0.49q-0.76 0.57-0.71-0.37z" fill="#fa992d"/> <path d="m614.81 640.94q0.59 0 0.4 0.72a0.48 0.48 0 0 1-0.61 0.33l-0.29-0.09a0.55 0.54 30 0 1-0.24-0.88q0.44-0.48 0.74-0.08z" fill="#fef5de"/> <ellipse transform="translate(359.42 645.78) rotate(.6)" rx="4.54" ry="3.53" fill="#fefeff"/> <path d="m655 658.46q-0.51-0.07-0.75 0.24-0.33 0.41 0.18 0.56 1.14 0.31 1.09 1.38a0.53 0.53 0 0 0 0.41 0.54l1.89 0.45q0.92 0.22 0.18 0.82c-3.26 2.67-6.3 1.56-10.17 2.03a0.72 0.72 0 0 0-0.42 1.22l0.34 0.34a0.13 0.13 0 0 1-0.11 0.22q-0.24-0.03-0.44-0.01a0.16 0.16 0 0 0-0.01 0.31l5.83 1.27-69.34-7.13 2.39-8.6q0.13-0.5 0.65-0.44l68.28 6.8z" fill="#fef5de"/> <path d="m555.41 658.05q-15.86 6.63-17.78 22.77-0.08 0.64-0.72 0.64l-83.29 0.06q-0.66 0-0.78-0.65-1.14-6.49-4.19-12.34-0.27-0.52 0.31-0.54l63.3-1.69a0.27 0.27 0 0 0 0.06-0.54q-2.75-0.66-5.64-0.8-29.6-1.48-59.23-1.9c-2.34-0.03-2.61-1.23-2.96-3.23 20.06-1.55 40.42-2.75 60.39-5.24q4.38-0.55 8.78-0.07c13.7 1.5 27.64 2.32 41.75 3.53z" fill="#e85c24"/> <path d="m583.68 660.7 69.34 7.13 58.86 6.41q-1.56 2.89-5.11 6.54c-1.58 1.62-2.13 0.74-3.83 0.74q-55.92-0.08-111.85 0.02-0.53 0-0.58-0.52-0.52-5.19-2.91-9.83-0.54-1.06 0.65-1.02 15.44 0.51 30.81-0.93a0.43 0.42-28.2 0 0 0.23-0.75q-1.09-0.88-2.86-0.99-15.62-0.92-31-1.59a2.49 2.47-13.8 0 1-2.03-1.22q-1.16-1.95 0.28-3.99z" fill="#e85c24"/> <path d="m427.24 702.74c-21.97 2.32-29.4-31.13-7.28-37.76 1.93-0.59 4.43-0.73 6.62-1.06q0.42-0.06 0.42 0.36v3.72q0 0.52-0.52 0.5c-19.76-0.83-15.63 26.29 0.5 21.18 6.19-1.96 9.08-8.4 8.08-14.67a0.68 0.66-13.9 0 1 0.46-0.75l5.48-1.73q0.53-0.17 0.84 0.29c8.54 12.72-0.24 28.41-14.6 29.92z" fill="#fefeff"/> <path d="m407.06 663.97q-6.28 7.38-7.7 16.97-0.08 0.52-0.59 0.52l-84.44 0.24a2.33 2.32 70.5 0 1-1.81-0.87l-5.39-6.71 99.93-10.15z" fill="#e85c24"/> <path d="m569.41 672.44c-20.39-10.37-23.9 23.5-4.6 19.14 8.2-1.85 11.2-12.68 14.22-18.98q0.28-0.58 0.63-0.04c8.36 12.73-0.08 29.31-15.25 30.11-14.74 0.77-25.96-17.8-16.17-30.21q8.04-10.2 23.31-6.16a1.26 1.26 0 0 1 0.8 1.8l-2.12 4.08q-0.28 0.53-0.82 0.26z" fill="#fefeff"/> <circle cx="423.23" cy="679.5" r="3.59" fill="#fefeff"/> <circle cx="561.72" cy="681.16" r="3.15" fill="#fefeff"/> <path d="m328.62 697.4q-0.98-0.9 0.35-0.9 35.27 0 71.16 0c1.27 0 2.23-0.68 3.13 0.79 10.71 17.47 35.61 17.15 45.89-0.44a0.69 0.68-74.6 0 1 0.59-0.34l90.52-0.03q0.42 0 0.64 0.35c11.08 17.79 35.09 18.07 45.96 0.17a1.03 1.02-74.4 0 1 0.88-0.5h104.08q0.85 0 0.21 0.56l-15.51 13.67a1.14 1.11-65.2 0 1-0.74 0.28q-51.55-0.03-103.02-0.01-0.3 0-0.58 0.16a0.58 0.56 27.7 0 1-0.31 0.09c-75.93-0.46-151.85-0.21-227.78-0.26q-0.58 0-1.01-0.39l-14.46-13.2z" fill="#e85c24"/> <path d="m363.36 725.9q-0.59-0.4 0.12-0.4h291.8q1.95 0 0.34 1.1c-37.35 25.56-80.36 41.49-125.26 44.95-40.46 3.13-78.66-3.42-116.52-17.63a0.15 0.14 54.3 0 1 0.04-0.28c41.95 0.1 83.85 0.34 125.81 0.02 6.14-0.04 6.25-3.13 8.96-7.4q0.28-0.44 0.81-0.45 26.03-0.24 52.04-1 2.82-0.08 5.38-0.68a0.8 0.79 75.6 0 0 0.58-0.99q-0.1-0.38-0.39-0.67-0.25-0.24-0.69-0.3-3.81-0.51-7.64-0.67c-64.49-2.65-117.9-1.99-209.72-1.61q-2.25 0-4.2-1.02-10.79-5.68-21.46-12.97zm149.66 37.06a4.95 4.95 0 0 0-4.95-4.95 4.95 4.95 0 0 0-4.95 4.95 4.95 4.95 0 0 0 4.95 4.95 4.95 4.95 0 0 0 4.95-4.95z" fill="#e85c24"/> <circle cx="508.07" cy="762.96" r="4.95" fill="#fefeff"/> </svg>