<?xml version='1.0' encoding='utf-8'?>
<svg xmlns="http://www.w3.org/2000/svg" viewBox="0 0 1024 1024"> <defs> <style> .cls-1 { fill: #a93d5d; } .cls-2 { fill: #333; } .cls-3 { fill: #d6d7d8; } .cls-4 { fill: #ccc52c; } .cls-5 { fill: #0d4d26; } .cls-6 { fill: #e3db1d; } .cls-7 { fill: #367226; } .cls-8 { fill: #5da93d; } </style> </defs> <title>shopping_bag_3d_illustration</title> <g id="Layer_3" data-name="Layer 3"> <circle class="cls-1" cx="512" cy="512" r="461.43"/> </g> <g id="Layer_1" data-name="Layer 1"> <g> <g> <path class="cls-2" d="M584,413.59a12.26,12.26,0,0,1,3.23,8.59c0,7.43-5.61,14.23-12.49,15.2s-12.45-4.27-12.43-11.7a15.86,15.86,0,0,1,9.54-14.41q-2,7.64-4.42,15l13.52-1.9C582.05,420.79,583.07,417.2,584,413.59Z"/> <path class="cls-3" d="M585,409.6a15.1,15.1,0,0,1,5.48,12.12c0,9.36-7.08,18-15.75,19.19s-15.72-5.41-15.7-14.77c0-8.63,6-16.63,13.79-18.77-.32,1.31-.64,2.61-1,3.9a15.86,15.86,0,0,0-9.54,14.41c0,7.43,5.55,12.66,12.43,11.7s12.47-7.77,12.49-15.2a12.26,12.26,0,0,0-3.23-8.59C584.36,412.26,584.69,410.93,585,409.6Z"/> </g> <g> <path class="cls-2" d="M369.22,439.75c5.46.66,9.51,5.4,9.49,11.73,0,7.44-5.6,14.24-12.48,15.2s-12.45-4.26-12.44-11.69a16,16,0,0,1,3.26-9.51q1.4,5,3,9.89l13.52-1.9Q371.18,446.84,369.22,439.75Z"/> <path class="cls-3" d="M368.26,436.12C376,436.08,382,442.39,382,451c0,9.36-7.08,18-15.76,19.18s-15.71-5.4-15.7-14.76a20.23,20.23,0,0,1,5.54-13.67c.32,1.24.65,2.48,1,3.7a16,16,0,0,0-3.26,9.51c0,7.43,5.56,12.66,12.44,11.69s12.47-7.76,12.48-15.2c0-6.33-4-11.07-9.49-11.73Q368.73,438,368.26,436.12Z"/> </g> <path class="cls-4" d="M471,190c32.87-4.62,63.62,9.62,86.56,40.09,22.52,29.9,34.88,72,34.79,118.6A262.36,262.36,0,0,1,585,409.6c-.33,1.33-.66,2.66-1,4-.94,3.61-2,7.2-3,10.74l-13.52,1.9q2.43-7.32,4.42-15c.34-1.29.66-2.59,1-3.9a244.57,244.57,0,0,0,6.8-56.24c.17-90.07-48.59-155.91-108.69-147.47s-109.13,88-109.29,177.42a221.74,221.74,0,0,0,6.6,55q.47,1.83,1,3.63,1.95,7.08,4.37,13.72l-13.52,1.9q-1.62-4.85-3-9.89c-.34-1.22-.67-2.46-1-3.7A235.06,235.06,0,0,1,349,383.55c.08-47.27,12.6-92.88,35.25-129.13C407.29,217.48,438.1,194.59,471,190Z"/> <path class="cls-5" d="M349,383.14,244.35,397.69l-.66,387L696,715.92l.66-381.26L592.33,349.2l-.15,0h0L579.49,351v0l-218,30.38h0L349,383.14Z"/> <g> <path class="cls-2" d="M667.52,459.1a12.26,12.26,0,0,1,3.23,8.59c0,7.43-5.61,14.23-12.49,15.19s-12.45-4.26-12.43-11.69a15.86,15.86,0,0,1,9.54-14.41c-1.32,5.08-2.8,10.08-4.42,15l13.52-1.9Q666.1,464.52,667.52,459.1Z"/> <path class="cls-3" d="M668.53,455.11A15.1,15.1,0,0,1,674,467.23c0,9.36-7.08,18-15.75,19.19s-15.72-5.41-15.7-14.77c0-8.64,6-16.64,13.79-18.77-.32,1.3-.64,2.6-1,3.9a15.86,15.86,0,0,0-9.54,14.41c0,7.43,5.55,12.66,12.43,11.69s12.47-7.76,12.49-15.19a12.3,12.3,0,0,0-3.23-8.6C667.87,457.77,668.2,456.44,668.53,455.11Z"/> </g> <g> <path class="cls-2" d="M452.73,485.26c5.46.66,9.51,5.4,9.49,11.73,0,7.44-5.6,14.23-12.48,15.2s-12.45-4.26-12.43-11.7a15.93,15.93,0,0,1,3.25-9.5q1.4,5,3,9.89L457.1,499Q454.69,492.34,452.73,485.26Z"/> <path class="cls-3" d="M451.77,481.63c7.74,0,13.73,6.27,13.72,14.9,0,9.37-7.08,18-15.76,19.19S434,510.32,434,501a20.25,20.25,0,0,1,5.54-13.67c.32,1.25.65,2.48,1,3.71a15.93,15.93,0,0,0-3.25,9.5c0,7.44,5.55,12.67,12.43,11.7s12.47-7.76,12.48-15.2c0-6.33-4-11.07-9.49-11.73Q452.23,483.46,451.77,481.63Z"/> </g> <path class="cls-6" d="M554.49,235.48c32.87-4.62,63.62,9.62,86.57,40.08,22.52,29.91,34.87,72,34.78,118.6a262.39,262.39,0,0,1-7.31,60.95c-.33,1.33-.66,2.66-1,4q-1.41,5.41-3,10.74L651,471.74c1.62-4.88,3.1-9.88,4.42-15,.34-1.3.66-2.6,1-3.9a244.57,244.57,0,0,0,6.8-56.24c.17-90.07-48.59-155.92-108.69-147.47s-109.13,88-109.29,177.41a221.76,221.76,0,0,0,6.6,55.05q.47,1.83,1,3.63,1.95,7.08,4.37,13.72l-13.52,1.9q-1.62-4.86-3-9.89c-.34-1.23-.67-2.46-1-3.7a236,236,0,0,1-7.09-58.23c.09-47.27,12.6-92.89,35.25-129.14C490.8,263,521.61,240.1,554.49,235.48Z"/> <polygon class="cls-7" points="327.35 834.88 243.69 785.27 244.35 398.23 328.01 443.74 327.35 834.88"/> <polygon class="cls-7" points="779.65 762.14 695.99 712.52 696.65 334.66 780.31 380.17 779.65 762.14"/> <path class="cls-8" d="M780.31,380.17l-.66,385.41-452.3,69.3L328,443.74l104.47-14.68a236,236,0,0,0,7.09,58.23A20.2,20.2,0,0,0,434,501c0,9.37,7,16,15.7,14.77s15.74-9.82,15.76-19.19c0-8.63-6-14.94-13.72-14.9a220.19,220.19,0,0,1-6.6-54.36l218-30.63a244.57,244.57,0,0,1-6.8,56.24C648.6,455,642.57,463,642.56,471.65c0,9.36,7,16,15.7,14.77S674,476.59,674,467.23a15.1,15.1,0,0,0-5.48-12.12,261,261,0,0,0,7.31-60.25Z"/> <polygon class="cls-8" points="327.35 834.88 288.99 746.12 243.69 784.64 327.35 834.88"/> </g> </g> </svg>